<?xml version="1.0" encoding="UTF-8"?>
<svg width="71px" height="37px" viewBox="0 0 71 37" version="1.1" xmlns="http://www.w3.org/2000/svg" xmlns:xlink="http://www.w3.org/1999/xlink">
    <title>logo2</title>
    <g id="Page-1" stroke="none" stroke-width="1" fill="none" fill-rule="evenodd">
        <g id="home_website" transform="translate(-59.000000, -56.000000)" fill="#000000" fill-rule="nonzero">
            <g id="logo2" transform="translate(59.000000, 56.000000)">
                <path d="M13.5575082,0.504371585 L13.5575082,13.010459 L13.556069,13.2120653 C13.5234481,15.4804984 12.9362702,17.1900422 11.7945355,18.3406967 C10.6192204,19.525194 8.89297631,20.1174426 6.61580328,20.1174426 C5.31193806,20.1174426 4.11366758,19.8741157 3.0209918,19.3874617 C1.92831603,18.9008078 1.03305647,18.2075555 0.335213115,17.3077049 L0.335213115,17.3077049 L2.81439344,14.3326885 L2.91295808,14.4631844 C3.93590691,15.7902382 5.09673143,16.453765 6.39543169,16.453765 C8.21349727,16.453765 9.12253005,15.3886357 9.12253005,13.258377 L9.12253005,13.258377 L9.12253005,4.08540984 L2.34610383,4.08540984 L2.34610383,0.504371585 L13.5575082,0.504371585 Z M27.3582787,0.173814208 C29.0477942,0.173814208 30.5812131,0.458460838 31.9585355,1.0277541 C33.3358579,1.59704736 34.4928087,2.4234408 35.429388,3.50693443 L35.429388,3.50693443 L32.5645574,6.15139344 L32.4422902,6.02526598 C31.0892258,4.65857134 29.4680125,3.97522404 27.5786503,3.97522404 C26.3482423,3.97522404 25.2555665,4.23232424 24.300623,4.74652459 C23.3456794,5.26072494 22.6019253,5.98611475 22.0693607,6.92269399 C21.536796,7.85927322 21.2705137,8.9335847 21.2705137,10.1456284 C21.2705137,11.3393078 21.536796,12.4044372 22.0693607,13.3410164 C22.6019253,14.2775956 23.3410883,15.0075765 24.2868497,15.530959 C25.2326111,16.0543415 26.3115137,16.3160328 27.5235574,16.3160328 C28.8090583,16.3160328 29.9660091,16.0405683 30.9944098,15.4896393 L30.9944098,15.4896393 L30.9944098,9.84261749 L35.0712842,9.84261749 L35.0712842,17.6658087 L34.8848452,17.803255 C33.8813538,18.5261348 32.7314565,19.0863412 31.435153,19.4838743 C30.0578306,19.9062532 28.671326,20.1174426 27.2756393,20.1174426 C25.2739308,20.1174426 23.4742295,19.6904727 21.8765355,18.8365328 C20.2788415,17.9825929 19.0254781,16.7980956 18.1164454,15.283041 C17.2074126,13.7679863 16.7528962,12.0555155 16.7528962,10.1456284 C16.7528962,8.23574133 17.2074126,6.52327049 18.1164454,5.00821585 C19.0254781,3.4931612 20.2880237,2.30866393 21.904082,1.45472404 C23.5201402,0.600784153 25.3382058,0.173814208 27.3582787,0.173814208 Z M43.665776,19.7868852 L43.665776,12.762541 L52.5908251,12.762541 L52.5908251,9.18150273 L43.665776,9.18150273 L43.665776,4.08540984 L53.7753224,4.08540984 L53.7753224,0.504371585 L39.2032514,0.504371585 L39.2032514,19.7868852 L43.665776,19.7868852 Z M61.2679563,0.504371585 L61.2679563,16.1507541 L70.9367596,16.1507541 L70.9367596,19.7868852 L56.8054317,19.7868852 L56.8054317,0.504371585 L61.2679563,0.504371585 Z M35.064534,9.31147541 L35.064534,12.8032787 L26.916993,12.8032787 L26.916993,9.31147541 L35.064534,9.31147541 Z" id="logo"></path>
                <path d="M1.4093306,29.9162186 C1.78644536,29.9162186 2.07190027,29.8140833 2.26569536,29.6098128 C2.45949044,29.4055423 2.55638798,29.1008825 2.55638798,28.6958333 L2.55638798,28.6958333 L2.55638798,26.2079235 L0.712715847,26.2079235 L0.712715847,26.6636038 L2.03785519,26.6636038 L2.03785519,28.7220219 C2.03785519,28.9664481 1.98460519,29.1515137 1.87810519,29.2772186 C1.77160519,29.4029235 1.61534699,29.465776 1.4093306,29.465776 C1.10205191,29.465776 0.847150273,29.3208661 0.644625683,29.0310464 L0.644625683,29.0310464 L0.340838798,29.3872104 C0.456068306,29.5548169 0.607961749,29.6848866 0.796519126,29.7774194 C0.985076503,29.8699522 1.18934699,29.9162186 1.4093306,29.9162186 Z M4.34768306,26.6059891 C4.42101093,26.6059891 4.48386339,26.5806735 4.53624044,26.5300423 C4.58861749,26.4794112 4.61480601,26.4156858 4.61480601,26.3388661 C4.61480601,26.2620464 4.58861749,26.1974481 4.53624044,26.145071 C4.48386339,26.092694 4.42101093,26.0665055 4.34768306,26.0665055 C4.27435519,26.0665055 4.21150273,26.092694 4.15912568,26.145071 C4.10674863,26.1974481 4.08056011,26.2620464 4.08056011,26.3388661 C4.08056011,26.4156858 4.10674863,26.4794112 4.15912568,26.5300423 C4.21150273,26.5806735 4.27435519,26.6059891 4.34768306,26.6059891 Z M5.32189617,26.6059891 C5.39522404,26.6059891 5.4580765,26.5806735 5.51045355,26.5300423 C5.5628306,26.4794112 5.58901913,26.4156858 5.58901913,26.3388661 C5.58901913,26.2620464 5.5628306,26.1974481 5.51045355,26.145071 C5.4580765,26.092694 5.39522404,26.0665055 5.32189617,26.0665055 C5.24856831,26.0665055 5.18571585,26.092694 5.1333388,26.145071 C5.08096175,26.1974481 5.05477322,26.2620464 5.05477322,26.3388661 C5.05477322,26.4156858 5.08096175,26.4794112 5.1333388,26.5300423 C5.18571585,26.5806735 5.24856831,26.6059891 5.32189617,26.6059891 Z M4.71956011,29.9057432 C4.91510109,29.9057432 5.09580191,29.8664604 5.26166257,29.7878948 C5.42752322,29.7093292 5.5610847,29.5984645 5.66234699,29.4553005 L5.66234699,29.4553005 L5.66234699,29.8743169 L6.13897814,29.8743169 L6.13897814,27.0983333 L5.63615847,27.0983333 L5.63615847,28.5334645 C5.63615847,28.826776 5.5593388,29.0537432 5.40569945,29.2143661 C5.25206011,29.3749891 5.04255191,29.4553005 4.77717486,29.4553005 C4.53624044,29.4553005 4.35117486,29.3863374 4.22197814,29.2484112 C4.09278142,29.110485 4.02818306,28.9070874 4.02818306,28.6382186 L4.02818306,28.6382186 L4.02818306,27.0983333 L3.52536339,27.0983333 L3.52536339,28.6958333 C3.52536339,29.0938989 3.63186339,29.3950669 3.84486339,29.5993374 C4.05786339,29.8036079 4.34942896,29.9057432 4.71956011,29.9057432 Z M8.24453552,29.9057432 C8.45055191,29.9057432 8.63910929,29.8655874 8.81020765,29.785276 C8.98130601,29.7049645 9.12272404,29.5879891 9.23446175,29.4343497 L9.23446175,29.4343497 L9.23446175,29.8743169 L9.7163306,29.8743169 L9.7163306,25.9879399 L9.21351093,25.9879399 L9.21351093,27.5173497 C9.10177322,27.370694 8.96210109,27.2598292 8.79449454,27.1847555 C8.62688798,27.1096817 8.44356831,27.0721448 8.24453552,27.0721448 C7.97566667,27.0721448 7.73473224,27.1315055 7.52173224,27.2502268 C7.30873224,27.3689481 7.14199863,27.5348087 7.02153142,27.7478087 C6.90106421,27.9608087 6.8408306,28.2069809 6.8408306,28.4863251 C6.8408306,28.7656694 6.90106421,29.0127145 7.02153142,29.2274604 C7.14199863,29.4422063 7.30873224,29.6089399 7.52173224,29.7276612 C7.73473224,29.8463825 7.97566667,29.9057432 8.24453552,29.9057432 Z M8.28643716,29.465776 C8.10835519,29.465776 7.94860519,29.4247473 7.80718716,29.3426899 C7.66576913,29.2606325 7.55403142,29.145403 7.47197404,28.9970014 C7.38991667,28.8485997 7.34888798,28.6783743 7.34888798,28.4863251 C7.34888798,28.294276 7.38991667,28.1240505 7.47197404,27.9756489 C7.55403142,27.8272473 7.66576913,27.7128907 7.80718716,27.6325792 C7.94860519,27.5522678 8.10835519,27.512112 8.28643716,27.512112 C8.46102732,27.512112 8.61990437,27.5522678 8.76306831,27.6325792 C8.90623224,27.7128907 9.01796995,27.8272473 9.09828142,27.9756489 C9.1785929,28.1240505 9.21874863,28.294276 9.21874863,28.4863251 C9.21874863,28.6783743 9.1785929,28.8485997 9.09828142,28.9970014 C9.01796995,29.145403 8.90623224,29.2606325 8.76306831,29.3426899 C8.61990437,29.4247473 8.46102732,29.465776 8.28643716,29.465776 Z M10.9210027,26.5640874 C11.0187732,26.5640874 11.0999577,26.5317883 11.164556,26.4671899 C11.2291544,26.4025915 11.2614536,26.323153 11.2614536,26.2288743 C11.2614536,26.1380874 11.2291544,26.0621407 11.164556,26.0010342 C11.0999577,25.9399276 11.0187732,25.9093743 10.9210027,25.9093743 C10.8232322,25.9093743 10.7420478,25.9416735 10.6774495,26.0062719 C10.6128511,26.0708702 10.5805519,26.1485628 10.5805519,26.2393497 C10.5805519,26.3301366 10.6128511,26.4069563 10.6774495,26.4698087 C10.7420478,26.5326612 10.8232322,26.5640874 10.9210027,26.5640874 Z M11.1724126,29.8743169 L11.1724126,27.0983333 L10.6695929,27.0983333 L10.6695929,29.8743169 L11.1724126,29.8743169 Z M12.9270437,29.9057432 C13.2971749,29.9057432 13.5896134,29.8315423 13.8043593,29.6831407 C14.0191052,29.5347391 14.1264781,29.3348333 14.1264781,29.0834235 C14.1264781,28.8948661 14.0775929,28.7482104 13.9798224,28.6434563 C13.8820519,28.5387022 13.7642036,28.4645014 13.6262773,28.4208538 C13.4883511,28.3772063 13.3076503,28.3361776 13.0841749,28.2977678 C12.9165683,28.2663415 12.7864986,28.2384071 12.6939658,28.2139645 C12.6014331,28.1895219 12.5237404,28.151112 12.460888,28.098735 C12.3980355,28.0463579 12.3666093,27.974776 12.3666093,27.8839891 C12.3666093,27.7687596 12.4224781,27.6762268 12.5342158,27.6063907 C12.6459536,27.5365546 12.8083224,27.5016366 13.0213224,27.5016366 C13.3286011,27.5016366 13.595724,27.5749645 13.8226913,27.7216202 L13.8226913,27.7216202 L14.0374372,27.3235546 C13.9187158,27.246735 13.7668224,27.1856284 13.5817568,27.140235 C13.3966913,27.0948415 13.2116257,27.0721448 13.0265601,27.0721448 C12.673888,27.0721448 12.3927978,27.1480915 12.1832896,27.299985 C11.9737814,27.4518784 11.8690273,27.6535301 11.8690273,27.9049399 C11.8690273,28.1004809 11.9196585,28.2523743 12.0209208,28.3606202 C12.1221831,28.4688661 12.2435232,28.5456858 12.3849413,28.5910792 C12.5263593,28.6364727 12.708806,28.6766284 12.9322814,28.7115464 C13.0963962,28.7394809 13.222974,28.7647964 13.312015,28.7874932 C13.401056,28.8101899 13.4752568,28.8459809 13.5346175,28.8948661 C13.5939781,28.9437514 13.6236585,29.0100956 13.6236585,29.0938989 C13.6236585,29.3453087 13.4036749,29.4710137 12.9637077,29.4710137 C12.7856257,29.4710137 12.6092896,29.4448251 12.4346995,29.3924481 C12.2601093,29.340071 12.1117077,29.270235 11.9894945,29.1829399 L11.9894945,29.1829399 L11.7799863,29.5810055 C11.8987077,29.6752842 12.0628224,29.7529768 12.2723306,29.8140833 C12.4818388,29.8751899 12.7000765,29.9057432 12.9270437,29.9057432 Z M15.9649126,29.9057432 C16.2163224,29.9057432 16.4406708,29.8542391 16.6379577,29.7512309 C16.8352445,29.6482227 16.9880109,29.500694 17.0962568,29.3086448 L17.0962568,29.3086448 L16.7139044,29.0677104 C16.6266093,29.2003989 16.5183634,29.2999153 16.3891667,29.3662596 C16.2599699,29.4326038 16.116806,29.465776 15.9596749,29.465776 C15.7781011,29.465776 15.6148593,29.4256202 15.4699495,29.3453087 C15.3250396,29.2649973 15.211556,29.1506407 15.1294986,29.0022391 C15.0474413,28.8538374 15.0064126,28.6818661 15.0064126,28.4863251 C15.0064126,28.294276 15.0474413,28.1240505 15.1294986,27.9756489 C15.211556,27.8272473 15.3250396,27.7128907 15.4699495,27.6325792 C15.6148593,27.5522678 15.7781011,27.512112 15.9596749,27.512112 C16.116806,27.512112 16.2599699,27.5452842 16.3891667,27.6116284 C16.5183634,27.6779727 16.6266093,27.7774891 16.7139044,27.9101776 L16.7139044,27.9101776 L17.0962568,27.6640055 C16.9880109,27.4719563 16.8352445,27.3253005 16.6379577,27.2240383 C16.4406708,27.122776 16.2163224,27.0721448 15.9649126,27.0721448 C15.6820765,27.0721448 15.4297937,27.1323784 15.2080642,27.2528456 C14.9863347,27.3733128 14.8126175,27.5409194 14.6869126,27.7556653 C14.5612077,27.9704112 14.4983552,28.2139645 14.4983552,28.4863251 C14.4983552,28.7586858 14.5612077,29.0022391 14.6869126,29.216985 C14.8126175,29.4317309 14.9863347,29.6002104 15.2080642,29.7224235 C15.4297937,29.8446366 15.6820765,29.9057432 15.9649126,29.9057432 Z M18.2485519,29.8743169 L18.2485519,28.4444235 C18.2485519,28.1476202 18.3271175,27.9197801 18.4842486,27.760903 C18.6413798,27.602026 18.8561257,27.5225874 19.1284863,27.5225874 C19.3694208,27.5225874 19.5544863,27.5906776 19.6836831,27.7268579 C19.8128798,27.8630383 19.8774781,28.0655628 19.8774781,28.3344317 L19.8774781,28.3344317 L19.8774781,29.8743169 L20.3802978,29.8743169 L20.3802978,28.2768169 C20.3802978,27.8822432 20.2764167,27.582821 20.0686544,27.3785505 C19.8608921,27.1742801 19.5806749,27.0721448 19.2280027,27.0721448 C19.0184945,27.0721448 18.8290642,27.1088087 18.6597117,27.1821366 C18.4903593,27.2554645 18.353306,27.3584727 18.2485519,27.4911612 L18.2485519,27.4911612 L18.2485519,25.9879399 L17.7457322,25.9879399 L17.7457322,29.8743169 L18.2485519,29.8743169 Z M22.5487077,29.9057432 C22.7791667,29.9057432 22.9878019,29.8673333 23.1746134,29.7905137 C23.3614249,29.713694 23.5176831,29.6019563 23.643388,29.4553005 L23.643388,29.4553005 L23.3657896,29.1305628 C23.163265,29.3540383 22.8961421,29.465776 22.5644208,29.465776 C22.2920601,29.465776 22.0642199,29.3915751 21.8809003,29.2431735 C21.6975806,29.0947719 21.5902077,28.8983579 21.5587814,28.6539317 L21.5587814,28.6539317 L23.8109945,28.6539317 C23.8179781,28.5910792 23.8214699,28.5404481 23.8214699,28.5020383 C23.8214699,28.222694 23.7629822,27.974776 23.6460068,27.7582842 C23.5290314,27.5417923 23.3666626,27.3733128 23.1589003,27.2528456 C22.951138,27.1323784 22.7145683,27.0721448 22.4491913,27.0721448 C22.1838142,27.0721448 21.9454986,27.1323784 21.7342445,27.2528456 C21.5229904,27.3733128 21.3571298,27.5417923 21.2366626,27.7582842 C21.1161954,27.974776 21.0559617,28.2174563 21.0559617,28.4863251 C21.0559617,28.7586858 21.1179413,29.003112 21.2419003,29.2196038 C21.3658593,29.4360956 21.5413224,29.6045751 21.7682896,29.7250423 C21.9952568,29.8455096 22.2553962,29.9057432 22.5487077,29.9057432 Z M23.3396011,28.2925301 L21.5587814,28.2925301 C21.5867158,28.0550874 21.6818675,27.8630383 21.8442363,27.7163825 C22.0066052,27.5697268 22.2082568,27.4963989 22.4491913,27.4963989 C22.6901257,27.4963989 22.8917773,27.5705997 23.0541462,27.7190014 C23.216515,27.867403 23.3116667,28.0585792 23.3396011,28.2925301 L23.3396011,28.2925301 Z M27.6554699,29.9162186 C27.9173552,29.9162186 28.168765,29.8760628 28.4096995,29.7957514 C28.6506339,29.7154399 28.861888,29.6002104 29.0434617,29.4500628 L29.0434617,29.4500628 L29.0434617,28.0201694 L28.5406421,28.0201694 L28.5406421,29.2143661 C28.2962158,29.3714973 28.009888,29.4500628 27.6816585,29.4500628 C27.405806,29.4500628 27.157015,29.3889563 26.9352855,29.2667432 C26.713556,29.1445301 26.5398388,28.9760505 26.4141339,28.7613046 C26.288429,28.5465587 26.2255765,28.3064973 26.2255765,28.0411202 C26.2255765,27.7722514 26.288429,27.530444 26.4141339,27.3156981 C26.5398388,27.1009522 26.713556,26.9333456 26.9352855,26.8128784 C27.157015,26.6924112 27.4075519,26.6321776 27.6868962,26.6321776 C28.1024208,26.6321776 28.4568388,26.7735956 28.7501503,27.0564317 L28.7501503,27.0564317 L29.074888,26.731694 C28.9072814,26.5466284 28.7038839,26.4060833 28.4646954,26.3100587 C28.2255068,26.2140342 27.9592568,26.1660219 27.6659454,26.1660219 C27.2923224,26.1660219 26.9562363,26.2463333 26.6576872,26.4069563 C26.359138,26.5675792 26.1251872,26.7910546 25.9558347,27.0773825 C25.7864822,27.3637104 25.701806,27.6849563 25.701806,28.0411202 C25.701806,28.3972842 25.7864822,28.7176571 25.9558347,29.0022391 C26.1251872,29.286821 26.358265,29.5102964 26.6550683,29.6726653 C26.9518716,29.8350342 27.2853388,29.9162186 27.6554699,29.9162186 Z M31.2066339,29.9057432 C31.4370929,29.9057432 31.6457281,29.8673333 31.8325396,29.7905137 C32.0193511,29.713694 32.1756093,29.6019563 32.3013142,29.4553005 L32.3013142,29.4553005 L32.0237158,29.1305628 C31.8211913,29.3540383 31.5540683,29.465776 31.222347,29.465776 C30.9499863,29.465776 30.7221462,29.3915751 30.5388265,29.2431735 C30.3555068,29.0947719 30.2481339,28.8983579 30.2167077,28.6539317 L30.2167077,28.6539317 L32.4689208,28.6539317 C32.4759044,28.5910792 32.4793962,28.5404481 32.4793962,28.5020383 C32.4793962,28.222694 32.4209085,27.974776 32.3039331,27.7582842 C32.1869577,27.5417923 32.0245888,27.3733128 31.8168265,27.2528456 C31.6090642,27.1323784 31.3724945,27.0721448 31.1071175,27.0721448 C30.8417404,27.0721448 30.6034249,27.1323784 30.3921708,27.2528456 C30.1809167,27.3733128 30.015056,27.5417923 29.8945888,27.7582842 C29.7741216,27.974776 29.713888,28.2174563 29.713888,28.4863251 C29.713888,28.7586858 29.7758675,29.003112 29.8998265,29.2196038 C30.0237855,29.4360956 30.1992486,29.6045751 30.4262158,29.7250423 C30.6531831,29.8455096 30.9133224,29.9057432 31.2066339,29.9057432 Z M31.9975273,28.2925301 L30.2167077,28.2925301 C30.2446421,28.0550874 30.3397937,27.8630383 30.5021626,27.7163825 C30.6645314,27.5697268 30.8661831,27.4963989 31.1071175,27.4963989 C31.3480519,27.4963989 31.5497036,27.5705997 31.7120724,27.7190014 C31.8744413,27.867403 31.9695929,28.0585792 31.9975273,28.2925301 L31.9975273,28.2925301 Z M33.6788306,29.8743169 L33.6788306,28.4444235 C33.6788306,28.1476202 33.7539044,27.9197801 33.9040519,27.760903 C34.0541995,27.602026 34.256724,27.5225874 34.5116257,27.5225874 C34.7420847,27.5225874 34.9192937,27.5906776 35.0432527,27.7268579 C35.1672117,27.8630383 35.2291913,28.0655628 35.2291913,28.3344317 L35.2291913,28.3344317 L35.2291913,29.8743169 L35.7320109,29.8743169 L35.7320109,28.4444235 C35.7320109,28.1476202 35.8070847,27.9197801 35.9572322,27.760903 C36.1073798,27.602026 36.3099044,27.5225874 36.564806,27.5225874 C36.795265,27.5225874 36.972474,27.5906776 37.0964331,27.7268579 C37.2203921,27.8630383 37.2823716,28.0655628 37.2823716,28.3344317 L37.2823716,28.3344317 L37.2823716,29.8743169 L37.7851913,29.8743169 L37.7851913,28.2768169 C37.7851913,27.8787514 37.683056,27.5784563 37.4787855,27.3759317 C37.274515,27.1734071 36.9977896,27.0721448 36.6486093,27.0721448 C36.4146585,27.0721448 36.2042773,27.1175383 36.0174658,27.2083251 C35.8306544,27.299112 35.6848716,27.4248169 35.5801175,27.5854399 C35.4893306,27.4178333 35.3601339,27.2903825 35.1925273,27.2030874 C35.0249208,27.1157923 34.8328716,27.0721448 34.6163798,27.0721448 C34.4068716,27.0721448 34.2200601,27.1096817 34.0559454,27.1847555 C33.8918306,27.2598292 33.7591421,27.3689481 33.6578798,27.512112 L33.6578798,27.512112 L33.6578798,27.0983333 L33.1760109,27.0983333 L33.1760109,29.8743169 L33.6788306,29.8743169 Z M39.9483634,29.9057432 C40.1788224,29.9057432 40.3874577,29.8673333 40.5742691,29.7905137 C40.7610806,29.713694 40.9173388,29.6019563 41.0430437,29.4553005 L41.0430437,29.4553005 L40.7654454,29.1305628 C40.5629208,29.3540383 40.2957978,29.465776 39.9640765,29.465776 C39.6917158,29.465776 39.4638757,29.3915751 39.280556,29.2431735 C39.0972363,29.0947719 38.9898634,28.8983579 38.9584372,28.6539317 L38.9584372,28.6539317 L41.2106503,28.6539317 C41.2176339,28.5910792 41.2211257,28.5404481 41.2211257,28.5020383 C41.2211257,28.222694 41.162638,27.974776 41.0456626,27.7582842 C40.9286872,27.5417923 40.7663183,27.3733128 40.558556,27.2528456 C40.3507937,27.1323784 40.114224,27.0721448 39.848847,27.0721448 C39.5834699,27.0721448 39.3451544,27.1323784 39.1339003,27.2528456 C38.9226462,27.3733128 38.7567855,27.5417923 38.6363183,27.7582842 C38.5158511,27.974776 38.4556175,28.2174563 38.4556175,28.4863251 C38.4556175,28.7586858 38.517597,29.003112 38.641556,29.2196038 C38.765515,29.4360956 38.9409781,29.6045751 39.1679454,29.7250423 C39.3949126,29.8455096 39.6550519,29.9057432 39.9483634,29.9057432 Z M40.7392568,28.2925301 L38.9584372,28.2925301 C38.9863716,28.0550874 39.0815232,27.8630383 39.2438921,27.7163825 C39.4062609,27.5697268 39.6079126,27.4963989 39.848847,27.4963989 C40.0897814,27.4963989 40.2914331,27.5705997 40.4538019,27.7190014 C40.6161708,27.867403 40.7113224,28.0585792 40.7392568,28.2925301 L40.7392568,28.2925301 Z M42.1691503,26.5640874 C42.2669208,26.5640874 42.3481052,26.5317883 42.4127036,26.4671899 C42.4773019,26.4025915 42.5096011,26.323153 42.5096011,26.2288743 C42.5096011,26.1380874 42.4773019,26.0621407 42.4127036,26.0010342 C42.3481052,25.9399276 42.2669208,25.9093743 42.1691503,25.9093743 C42.0713798,25.9093743 41.9901954,25.9416735 41.925597,26.0062719 C41.8609986,26.0708702 41.8286995,26.1485628 41.8286995,26.2393497 C41.8286995,26.3301366 41.8609986,26.4069563 41.925597,26.4698087 C41.9901954,26.5326612 42.0713798,26.5640874 42.1691503,26.5640874 Z M42.4205601,29.8743169 L42.4205601,27.0983333 L41.9177404,27.0983333 L41.9177404,29.8743169 L42.4205601,29.8743169 Z M43.8818798,29.8743169 L43.8818798,28.4444235 C43.8818798,28.1476202 43.9604454,27.9197801 44.1175765,27.760903 C44.2747077,27.602026 44.4894536,27.5225874 44.7618142,27.5225874 C45.0027486,27.5225874 45.1878142,27.5906776 45.3170109,27.7268579 C45.4462077,27.8630383 45.510806,28.0655628 45.510806,28.3344317 L45.510806,28.3344317 L45.510806,29.8743169 L46.0136257,29.8743169 L46.0136257,28.2768169 C46.0136257,27.8822432 45.9097445,27.582821 45.7019822,27.3785505 C45.4942199,27.1742801 45.2140027,27.0721448 44.8613306,27.0721448 C44.641347,27.0721448 44.4449331,27.1105546 44.2720888,27.1873743 C44.0992445,27.264194 43.9621913,27.3741858 43.860929,27.5173497 L43.860929,27.5173497 L43.860929,27.0983333 L43.3790601,27.0983333 L43.3790601,29.8743169 L43.8818798,29.8743169 Z M47.7420683,29.9057432 C48.1121995,29.9057432 48.404638,29.8315423 48.6193839,29.6831407 C48.8341298,29.5347391 48.9415027,29.3348333 48.9415027,29.0834235 C48.9415027,28.8948661 48.8926175,28.7482104 48.794847,28.6434563 C48.6970765,28.5387022 48.5792281,28.4645014 48.4413019,28.4208538 C48.3033757,28.3772063 48.1226749,28.3361776 47.8991995,28.2977678 C47.7315929,28.2663415 47.6015232,28.2384071 47.5089904,28.2139645 C47.4164577,28.1895219 47.338765,28.151112 47.2759126,28.098735 C47.2130601,28.0463579 47.1816339,27.974776 47.1816339,27.8839891 C47.1816339,27.7687596 47.2375027,27.6762268 47.3492404,27.6063907 C47.4609781,27.5365546 47.623347,27.5016366 47.836347,27.5016366 C48.1436257,27.5016366 48.4107486,27.5749645 48.6377158,27.7216202 L48.6377158,27.7216202 L48.8524617,27.3235546 C48.7337404,27.246735 48.581847,27.1856284 48.3967814,27.140235 C48.2117158,27.0948415 48.0266503,27.0721448 47.8415847,27.0721448 C47.4889126,27.0721448 47.2078224,27.1480915 46.9983142,27.299985 C46.788806,27.4518784 46.6840519,27.6535301 46.6840519,27.9049399 C46.6840519,28.1004809 46.7346831,28.2523743 46.8359454,28.3606202 C46.9372077,28.4688661 47.0585478,28.5456858 47.1999658,28.5910792 C47.3413839,28.6364727 47.5238306,28.6766284 47.747306,28.7115464 C47.9114208,28.7394809 48.0379986,28.7647964 48.1270396,28.7874932 C48.2160806,28.8101899 48.2902814,28.8459809 48.3496421,28.8948661 C48.4090027,28.9437514 48.4386831,29.0100956 48.4386831,29.0938989 C48.4386831,29.3453087 48.2186995,29.4710137 47.7787322,29.4710137 C47.6006503,29.4710137 47.4243142,29.4448251 47.249724,29.3924481 C47.0751339,29.340071 46.9267322,29.270235 46.8045191,29.1829399 L46.8045191,29.1829399 L46.5950109,29.5810055 C46.7137322,29.6752842 46.877847,29.7529768 47.0873552,29.8140833 C47.2968634,29.8751899 47.5151011,29.9057432 47.7420683,29.9057432 Z M50.7799372,29.9057432 C51.031347,29.9057432 51.2556954,29.8542391 51.4529822,29.7512309 C51.6502691,29.6482227 51.8030355,29.500694 51.9112814,29.3086448 L51.9112814,29.3086448 L51.528929,29.0677104 C51.4416339,29.2003989 51.333388,29.2999153 51.2041913,29.3662596 C51.0749945,29.4326038 50.9318306,29.465776 50.7746995,29.465776 C50.5931257,29.465776 50.4298839,29.4256202 50.284974,29.3453087 C50.1400642,29.2649973 50.0265806,29.1506407 49.9445232,29.0022391 C49.8624658,28.8538374 49.8214372,28.6818661 49.8214372,28.4863251 C49.8214372,28.294276 49.8624658,28.1240505 49.9445232,27.9756489 C50.0265806,27.8272473 50.1400642,27.7128907 50.284974,27.6325792 C50.4298839,27.5522678 50.5931257,27.512112 50.7746995,27.512112 C50.9318306,27.512112 51.0749945,27.5452842 51.2041913,27.6116284 C51.333388,27.6779727 51.4416339,27.7774891 51.528929,27.9101776 L51.528929,27.9101776 L51.9112814,27.6640055 C51.8030355,27.4719563 51.6502691,27.3253005 51.4529822,27.2240383 C51.2556954,27.122776 51.031347,27.0721448 50.7799372,27.0721448 C50.4971011,27.0721448 50.2448183,27.1323784 50.0230888,27.2528456 C49.8013593,27.3733128 49.6276421,27.5409194 49.5019372,27.7556653 C49.3762322,27.9704112 49.3133798,28.2139645 49.3133798,28.4863251 C49.3133798,28.7586858 49.3762322,29.0022391 49.5019372,29.216985 C49.6276421,29.4317309 49.8013593,29.6002104 50.0230888,29.7224235 C50.2448183,29.8446366 50.4971011,29.9057432 50.7799372,29.9057432 Z M53.0635765,29.8743169 L53.0635765,28.4444235 C53.0635765,28.1476202 53.1421421,27.9197801 53.2992732,27.760903 C53.4564044,27.602026 53.6711503,27.5225874 53.9435109,27.5225874 C54.1844454,27.5225874 54.3695109,27.5906776 54.4987077,27.7268579 C54.6279044,27.8630383 54.6925027,28.0655628 54.6925027,28.3344317 L54.6925027,28.3344317 L54.6925027,29.8743169 L55.1953224,29.8743169 L55.1953224,28.2768169 C55.1953224,27.8822432 55.0914413,27.582821 54.883679,27.3785505 C54.6759167,27.1742801 54.3956995,27.0721448 54.0430273,27.0721448 C53.8335191,27.0721448 53.6440888,27.1088087 53.4747363,27.1821366 C53.3053839,27.2554645 53.1683306,27.3584727 53.0635765,27.4911612 L53.0635765,27.4911612 L53.0635765,25.9879399 L52.5607568,25.9879399 L52.5607568,29.8743169 L53.0635765,29.8743169 Z M56.9394781,29.9057432 C57.1524781,29.9057432 57.3366708,29.8716981 57.492056,29.8036079 C57.6474413,29.7355178 57.7670355,29.6368743 57.8508388,29.5076776 L57.8508388,29.5076776 L57.8508388,29.8743169 L58.3274699,29.8743169 L58.3274699,28.1982514 C58.3274699,27.8246284 58.2253347,27.5435383 58.0210642,27.3549809 C57.8167937,27.1664235 57.5226093,27.0721448 57.1385109,27.0721448 C56.9150355,27.0721448 56.7037814,27.1026981 56.5047486,27.1638046 C56.3057158,27.2249112 56.1346175,27.3130792 55.9914536,27.4283087 L55.9914536,27.4283087 L56.2009617,27.8054235 C56.3092077,27.7146366 56.4418962,27.6421817 56.5990273,27.5880587 C56.7561585,27.5339358 56.9167814,27.5068743 57.0808962,27.5068743 C57.3253224,27.5068743 57.510388,27.5644891 57.6360929,27.6797186 C57.7617978,27.7949481 57.8246503,27.9608087 57.8246503,28.1773005 L57.8246503,28.1773005 L57.8246503,28.2768169 L57.0285191,28.2768169 C56.640929,28.2768169 56.3580929,28.3510178 56.1800109,28.4994194 C56.001929,28.647821 55.912888,28.844235 55.912888,29.0886612 C55.912888,29.3330874 56.0062937,29.5303743 56.1931052,29.6805219 C56.3799167,29.8306694 56.6287077,29.9057432 56.9394781,29.9057432 Z M57.0232814,29.518153 C56.8312322,29.518153 56.6810847,29.4779973 56.5728388,29.3976858 C56.4645929,29.3173743 56.4104699,29.2073825 56.4104699,29.0677104 C56.4104699,28.7813825 56.6234699,28.6382186 57.0494699,28.6382186 L57.0494699,28.6382186 L57.8246503,28.6382186 L57.8246503,29.0258087 C57.7617978,29.1829399 57.6605355,29.3042801 57.5208634,29.3898292 C57.3811913,29.4753784 57.2153306,29.518153 57.0232814,29.518153 Z M59.835929,29.8743169 L59.835929,27.512112 L60.6320601,27.512112 L60.6320601,27.0983333 L59.8254536,27.0983333 L59.8254536,26.8573989 C59.8254536,26.5326612 59.9756011,26.3702923 60.2758962,26.3702923 C60.4190601,26.3702923 60.5482568,26.4139399 60.6634863,26.501235 L60.6634863,26.501235 L60.8153798,26.1188825 C60.7455437,26.0665055 60.6617404,26.0263497 60.5639699,25.9984153 C60.4661995,25.9704809 60.3614454,25.9565137 60.2497077,25.9565137 C59.959888,25.9565137 59.7346667,26.0368251 59.5740437,26.1974481 C59.4134208,26.358071 59.3331093,26.5763087 59.3331093,26.8521612 L59.3331093,26.8521612 L59.3331093,27.0983333 L58.8617158,27.0983333 L58.8617158,27.512112 L59.3331093,27.512112 L59.3331093,29.8743169 L59.835929,29.8743169 Z M62.0619536,29.9057432 C62.1771831,29.9057432 62.2889208,29.8891571 62.3971667,29.855985 C62.5054126,29.8228128 62.5961995,29.7748005 62.6695273,29.7119481 L62.6695273,29.7119481 L62.5123962,29.3505464 C62.4041503,29.4378415 62.2732077,29.4814891 62.1195683,29.4814891 C61.9798962,29.4814891 61.8725232,29.4413333 61.7974495,29.3610219 C61.7223757,29.2807104 61.6848388,29.1654809 61.6848388,29.0153333 L61.6848388,29.0153333 L61.6848388,27.512112 L62.4809699,27.512112 L62.4809699,27.0983333 L61.6848388,27.0983333 L61.6848388,26.4907596 L61.1820191,26.4907596 L61.1820191,27.0983333 L60.7106257,27.0983333 L60.7106257,27.512112 L61.1820191,27.512112 L61.1820191,29.0362842 C61.1820191,29.3156284 61.2588388,29.5303743 61.4124781,29.6805219 C61.5661175,29.8306694 61.7826093,29.9057432 62.0619536,29.9057432 Z M64.9374536,26.5640874 C65.035224,26.5640874 65.1164085,26.5317883 65.1810068,26.4671899 C65.2456052,26.4025915 65.2779044,26.323153 65.2779044,26.2288743 C65.2779044,26.1380874 65.2456052,26.0621407 65.1810068,26.0010342 C65.1164085,25.9399276 65.035224,25.9093743 64.9374536,25.9093743 C64.8396831,25.9093743 64.7584986,25.9416735 64.6939003,26.0062719 C64.6293019,26.0708702 64.5970027,26.1485628 64.5970027,26.2393497 C64.5970027,26.3301366 64.6293019,26.4069563 64.6939003,26.4698087 C64.7584986,26.5326612 64.8396831,26.5640874 64.9374536,26.5640874 Z M65.1888634,29.8743169 L65.1888634,27.0983333 L64.6860437,27.0983333 L64.6860437,29.8743169 L65.1888634,29.8743169 Z M66.6501831,29.8743169 L66.6501831,28.4444235 C66.6501831,28.1476202 66.7252568,27.9197801 66.8754044,27.760903 C67.0255519,27.602026 67.2280765,27.5225874 67.4829781,27.5225874 C67.7134372,27.5225874 67.8906462,27.5906776 68.0146052,27.7268579 C68.1385642,27.8630383 68.2005437,28.0655628 68.2005437,28.3344317 L68.2005437,28.3344317 L68.2005437,29.8743169 L68.7033634,29.8743169 L68.7033634,28.4444235 C68.7033634,28.1476202 68.7784372,27.9197801 68.9285847,27.760903 C69.0787322,27.602026 69.2812568,27.5225874 69.5361585,27.5225874 C69.7666175,27.5225874 69.9438265,27.5906776 70.0677855,27.7268579 C70.1917445,27.8630383 70.253724,28.0655628 70.253724,28.3344317 L70.253724,28.3344317 L70.253724,29.8743169 L70.7565437,29.8743169 L70.7565437,28.2768169 C70.7565437,27.8787514 70.6544085,27.5784563 70.450138,27.3759317 C70.2458675,27.1734071 69.9691421,27.0721448 69.6199617,27.0721448 C69.3860109,27.0721448 69.1756298,27.1175383 68.9888183,27.2083251 C68.8020068,27.299112 68.656224,27.4248169 68.5514699,27.5854399 C68.4606831,27.4178333 68.3314863,27.2903825 68.1638798,27.2030874 C67.9962732,27.1157923 67.804224,27.0721448 67.5877322,27.0721448 C67.378224,27.0721448 67.1914126,27.1096817 67.0272978,27.1847555 C66.8631831,27.2598292 66.7304945,27.3689481 66.6292322,27.512112 L66.6292322,27.512112 L66.6292322,27.0983333 L66.1473634,27.0983333 L66.1473634,29.8743169 L66.6501831,29.8743169 Z M1.46170765,36.0819672 L1.46170765,34.5996967 L3.30014208,34.5996967 L3.30014208,34.1492541 L1.46170765,34.1492541 L1.46170765,32.8712541 L3.52536339,32.8712541 L3.52536339,32.4155738 L0.937937158,32.4155738 L0.937937158,36.0819672 L1.46170765,36.0819672 Z M4.98668306,32.8136393 C5.06001093,32.8136393 5.12286339,32.7883238 5.17524044,32.7376926 C5.22761749,32.6870615 5.25380601,32.6233361 5.25380601,32.5465164 C5.25380601,32.4696967 5.22761749,32.4050984 5.17524044,32.3527213 C5.12286339,32.3003443 5.06001093,32.2741557 4.98668306,32.2741557 C4.91335519,32.2741557 4.85050273,32.3003443 4.79812568,32.3527213 C4.74574863,32.4050984 4.71956011,32.4696967 4.71956011,32.5465164 C4.71956011,32.6233361 4.74574863,32.6870615 4.79812568,32.7376926 C4.85050273,32.7883238 4.91335519,32.8136393 4.98668306,32.8136393 Z M5.96089617,32.8136393 C6.03422404,32.8136393 6.0970765,32.7883238 6.14945355,32.7376926 C6.2018306,32.6870615 6.22801913,32.6233361 6.22801913,32.5465164 C6.22801913,32.4696967 6.2018306,32.4050984 6.14945355,32.3527213 C6.0970765,32.3003443 6.03422404,32.2741557 5.96089617,32.2741557 C5.88756831,32.2741557 5.82471585,32.3003443 5.7723388,32.3527213 C5.71996175,32.4050984 5.69377322,32.4696967 5.69377322,32.5465164 C5.69377322,32.6233361 5.71996175,32.6870615 5.7723388,32.7376926 C5.82471585,32.7883238 5.88756831,32.8136393 5.96089617,32.8136393 Z M5.35856011,36.1133934 C5.55410109,36.1133934 5.73480191,36.0741107 5.90066257,35.9955451 C6.06652322,35.9169795 6.2000847,35.8061148 6.30134699,35.6629508 L6.30134699,35.6629508 L6.30134699,36.0819672 L6.77797814,36.0819672 L6.77797814,33.3059836 L6.27515847,33.3059836 L6.27515847,34.7411148 C6.27515847,35.0344262 6.1983388,35.2613934 6.04469945,35.4220164 C5.89106011,35.5826393 5.68155191,35.6629508 5.41617486,35.6629508 C5.17524044,35.6629508 4.99017486,35.5939877 4.86097814,35.4560615 C4.73178142,35.3181352 4.66718306,35.1147377 4.66718306,34.8458689 L4.66718306,34.8458689 L4.66718306,33.3059836 L4.16436339,33.3059836 L4.16436339,34.9034836 C4.16436339,35.3015492 4.27086339,35.6027172 4.48386339,35.8069877 C4.69686339,36.0112582 4.98842896,36.1133934 5.35856011,36.1133934 Z M8.23929781,36.0819672 L8.23929781,34.6992131 C8.23929781,34.398918 8.31699044,34.1675861 8.47237568,34.0052172 C8.62776093,33.8428484 8.84163388,33.7616639 9.11399454,33.7616639 C9.16287978,33.7616639 9.20128962,33.7634098 9.22922404,33.7669016 L9.22922404,33.7669016 L9.22922404,33.2797951 C8.98479781,33.2797951 8.77703552,33.3216967 8.60593716,33.4055 C8.4348388,33.4893033 8.30564208,33.6115164 8.21834699,33.7721393 L8.21834699,33.7721393 L8.21834699,33.3059836 L7.73647814,33.3059836 L7.73647814,36.0819672 L8.23929781,36.0819672 Z M10.6800683,36.1133934 C11.0501995,36.1133934 11.342638,36.0391926 11.5573839,35.890791 C11.7721298,35.7423893 11.8795027,35.5424836 11.8795027,35.2910738 C11.8795027,35.1025164 11.8306175,34.9558607 11.732847,34.8511066 C11.6350765,34.7463525 11.5172281,34.6721516 11.3793019,34.6285041 C11.2413757,34.5848566 11.0606749,34.5438279 10.8371995,34.505418 C10.6695929,34.4739918 10.5395232,34.4460574 10.4469904,34.4216148 C10.3544577,34.3971721 10.276765,34.3587623 10.2139126,34.3063852 C10.1510601,34.2540082 10.1196339,34.1824262 10.1196339,34.0916393 C10.1196339,33.9764098 10.1755027,33.883877 10.2872404,33.814041 C10.3989781,33.7442049 10.561347,33.7092869 10.774347,33.7092869 C11.0816257,33.7092869 11.3487486,33.7826148 11.5757158,33.9292705 L11.5757158,33.9292705 L11.7904617,33.5312049 C11.6717404,33.4543852 11.519847,33.3932787 11.3347814,33.3478852 C11.1497158,33.3024918 10.9646503,33.2797951 10.7795847,33.2797951 C10.4269126,33.2797951 10.1458224,33.3557418 9.93631421,33.5076352 C9.72680601,33.6595287 9.62205191,33.8611803 9.62205191,34.1125902 C9.62205191,34.3081311 9.67268306,34.4600246 9.77394536,34.5682705 C9.87520765,34.6765164 9.99654781,34.7533361 10.1379658,34.7987295 C10.2793839,34.844123 10.4618306,34.8842787 10.685306,34.9191967 C10.8494208,34.9471311 10.9759986,34.9724467 11.0650396,34.9951434 C11.1540806,35.0178402 11.2282814,35.0536311 11.2876421,35.1025164 C11.3470027,35.1514016 11.3766831,35.2177459 11.3766831,35.3015492 C11.3766831,35.552959 11.1566995,35.6786639 10.7167322,35.6786639 C10.5386503,35.6786639 10.3623142,35.6524754 10.187724,35.6000984 C10.0131339,35.5477213 9.86473224,35.4778852 9.74251913,35.3905902 L9.74251913,35.3905902 L9.53301093,35.7886557 C9.65173224,35.8829344 9.81584699,35.960627 10.0253552,36.0217336 C10.2348634,36.0828402 10.4531011,36.1133934 10.6800683,36.1133934 Z M13.4612896,36.1133934 C13.5765191,36.1133934 13.6882568,36.0968074 13.7965027,36.0636352 C13.9047486,36.0304631 13.9955355,35.9824508 14.0688634,35.9195984 L14.0688634,35.9195984 L13.9117322,35.5581967 C13.8034863,35.6454918 13.6725437,35.6891393 13.5189044,35.6891393 C13.3792322,35.6891393 13.2718593,35.6489836 13.1967855,35.5686721 C13.1217117,35.4883607 13.0841749,35.3731311 13.0841749,35.2229836 L13.0841749,35.2229836 L13.0841749,33.7197623 L13.880306,33.7197623 L13.880306,33.3059836 L13.0841749,33.3059836 L13.0841749,32.6984098 L12.5813552,32.6984098 L12.5813552,33.3059836 L12.1099617,33.3059836 L12.1099617,33.7197623 L12.5813552,33.7197623 L12.5813552,35.2439344 C12.5813552,35.5232787 12.6581749,35.7380246 12.8118142,35.8881721 C12.9654536,36.0383197 13.1819454,36.1133934 13.4612896,36.1133934 Z M15.9125355,36.1133934 C16.1429945,36.1133934 16.3516298,36.0749836 16.5384413,35.9981639 C16.7252527,35.9213443 16.8815109,35.8096066 17.0072158,35.6629508 L17.0072158,35.6629508 L16.7296175,35.3382131 C16.5270929,35.5616885 16.2599699,35.6734262 15.9282486,35.6734262 C15.655888,35.6734262 15.4280478,35.5992254 15.2447281,35.4508238 C15.0614085,35.3024221 14.9540355,35.1060082 14.9226093,34.861582 L14.9226093,34.861582 L17.1748224,34.861582 C17.181806,34.7987295 17.1852978,34.7480984 17.1852978,34.7096885 C17.1852978,34.4303443 17.1268101,34.1824262 17.0098347,33.9659344 C16.8928593,33.7494426 16.7304904,33.5809631 16.5227281,33.4604959 C16.3149658,33.3400287 16.0783962,33.2797951 15.8130191,33.2797951 C15.5476421,33.2797951 15.3093265,33.3400287 15.0980724,33.4604959 C14.8868183,33.5809631 14.7209577,33.7494426 14.6004904,33.9659344 C14.4800232,34.1824262 14.4197896,34.4251066 14.4197896,34.6939754 C14.4197896,34.9663361 14.4817691,35.2107623 14.6057281,35.4272541 C14.7296872,35.6437459 14.9051503,35.8122254 15.1321175,35.9326926 C15.3590847,36.0531598 15.619224,36.1133934 15.9125355,36.1133934 Z M16.703429,34.5001803 L14.9226093,34.5001803 C14.9505437,34.2627377 15.0456954,34.0706885 15.2080642,33.9240328 C15.3704331,33.777377 15.5720847,33.7040492 15.8130191,33.7040492 C16.0539536,33.7040492 16.2556052,33.77825 16.417974,33.9266516 C16.5803429,34.0750533 16.6754945,34.2662295 16.703429,34.5001803 L16.703429,34.5001803 Z M18.3847322,36.0819672 L18.3847322,34.6520738 C18.3847322,34.3552705 18.4632978,34.1274303 18.620429,33.9685533 C18.7775601,33.8096762 18.992306,33.7302377 19.2646667,33.7302377 C19.5056011,33.7302377 19.6906667,33.7983279 19.8198634,33.9345082 C19.9490601,34.0706885 20.0136585,34.2732131 20.0136585,34.542082 L20.0136585,34.542082 L20.0136585,36.0819672 L20.5164781,36.0819672 L20.5164781,34.4844672 C20.5164781,34.0898934 20.412597,33.7904713 20.2048347,33.5862008 C19.9970724,33.3819303 19.7168552,33.2797951 19.3641831,33.2797951 C19.1441995,33.2797951 18.9477855,33.3182049 18.7749413,33.3950246 C18.602097,33.4718443 18.4650437,33.5818361 18.3637814,33.725 L18.3637814,33.725 L18.3637814,33.3059836 L17.8819126,33.3059836 L17.8819126,36.0819672 L18.3847322,36.0819672 Z M22.4020519,36.1133934 C22.5172814,36.1133934 22.6290191,36.0968074 22.737265,36.0636352 C22.8455109,36.0304631 22.9362978,35.9824508 23.0096257,35.9195984 L23.0096257,35.9195984 L22.8524945,35.5581967 C22.7442486,35.6454918 22.613306,35.6891393 22.4596667,35.6891393 C22.3199945,35.6891393 22.2126216,35.6489836 22.1375478,35.5686721 C22.062474,35.4883607 22.0249372,35.3731311 22.0249372,35.2229836 L22.0249372,35.2229836 L22.0249372,33.7197623 L22.8210683,33.7197623 L22.8210683,33.3059836 L22.0249372,33.3059836 L22.0249372,32.6984098 L21.5221175,32.6984098 L21.5221175,33.3059836 L21.050724,33.3059836 L21.050724,33.7197623 L21.5221175,33.7197623 L21.5221175,35.2439344 C21.5221175,35.5232787 21.5989372,35.7380246 21.7525765,35.8881721 C21.9062158,36.0383197 22.1227077,36.1133934 22.4020519,36.1133934 Z M24.7852077,36.1133934 C24.9807486,36.1133934 25.1614495,36.0741107 25.3273101,35.9955451 C25.4931708,35.9169795 25.6267322,35.8061148 25.7279945,35.6629508 L25.7279945,35.6629508 L25.7279945,36.0819672 L26.2046257,36.0819672 L26.2046257,33.3059836 L25.701806,33.3059836 L25.701806,34.7411148 C25.701806,35.0344262 25.6249863,35.2613934 25.471347,35.4220164 C25.3177077,35.5826393 25.1081995,35.6629508 24.8428224,35.6629508 C24.601888,35.6629508 24.4168224,35.5939877 24.2876257,35.4560615 C24.158429,35.3181352 24.0938306,35.1147377 24.0938306,34.8458689 L24.0938306,34.8458689 L24.0938306,33.3059836 L23.5910109,33.3059836 L23.5910109,34.9034836 C23.5910109,35.3015492 23.6975109,35.6027172 23.9105109,35.8069877 C24.1235109,36.0112582 24.4150765,36.1133934 24.7852077,36.1133934 Z M27.6659454,36.0819672 L27.6659454,34.6520738 C27.6659454,34.3552705 27.7410191,34.1274303 27.8911667,33.9685533 C28.0413142,33.8096762 28.2438388,33.7302377 28.4987404,33.7302377 C28.7291995,33.7302377 28.9064085,33.7983279 29.0303675,33.9345082 C29.1543265,34.0706885 29.216306,34.2732131 29.216306,34.542082 L29.216306,34.542082 L29.216306,36.0819672 L29.7191257,36.0819672 L29.7191257,34.6520738 C29.7191257,34.3552705 29.7941995,34.1274303 29.944347,33.9685533 C30.0944945,33.8096762 30.2970191,33.7302377 30.5519208,33.7302377 C30.7823798,33.7302377 30.9595888,33.7983279 31.0835478,33.9345082 C31.2075068,34.0706885 31.2694863,34.2732131 31.2694863,34.542082 L31.2694863,34.542082 L31.2694863,36.0819672 L31.772306,36.0819672 L31.772306,34.4844672 C31.772306,34.0864016 31.6701708,33.7861066 31.4659003,33.583582 C31.2616298,33.3810574 30.9849044,33.2797951 30.635724,33.2797951 C30.4017732,33.2797951 30.1913921,33.3251885 30.0045806,33.4159754 C29.8177691,33.5067623 29.6719863,33.6324672 29.5672322,33.7930902 C29.4764454,33.6254836 29.3472486,33.4980328 29.1796421,33.4107377 C29.0120355,33.3234426 28.8199863,33.2797951 28.6034945,33.2797951 C28.3939863,33.2797951 28.2071749,33.317332 28.0430601,33.3924057 C27.8789454,33.4674795 27.7462568,33.5765984 27.6449945,33.7197623 L27.6449945,33.7197623 L27.6449945,33.3059836 L27.1631257,33.3059836 L27.1631257,36.0819672 L27.6659454,36.0819672 Z M36.6905109,36.0819672 L36.6905109,35.6262869 L34.7054208,35.6262869 L34.7054208,32.4155738 L34.1816503,32.4155738 L34.1816503,36.0819672 L36.6905109,36.0819672 Z M37.470929,32.7717377 C37.5686995,32.7717377 37.6498839,32.7394385 37.7144822,32.6748402 C37.7790806,32.6102418 37.8113798,32.5308033 37.8113798,32.4365246 C37.8113798,32.3457377 37.7790806,32.269791 37.7144822,32.2086844 C37.6498839,32.1475779 37.5686995,32.1170246 37.470929,32.1170246 C37.3731585,32.1170246 37.291974,32.1493238 37.2273757,32.2139221 C37.1627773,32.2785205 37.1304781,32.3562131 37.1304781,32.447 C37.1304781,32.5377869 37.1627773,32.6146066 37.2273757,32.677459 C37.291974,32.7403115 37.3731585,32.7717377 37.470929,32.7717377 Z M37.7223388,36.0819672 L37.7223388,33.3059836 L37.2195191,33.3059836 L37.2195191,36.0819672 L37.7223388,36.0819672 Z M39.9169372,36.1133934 C40.1473962,36.1133934 40.3560314,36.0749836 40.5428429,35.9981639 C40.7296544,35.9213443 40.8859126,35.8096066 41.0116175,35.6629508 L41.0116175,35.6629508 L40.7340191,35.3382131 C40.5314945,35.5616885 40.2643716,35.6734262 39.9326503,35.6734262 C39.6602896,35.6734262 39.4324495,35.5992254 39.2491298,35.4508238 C39.0658101,35.3024221 38.9584372,35.1060082 38.9270109,34.861582 L38.9270109,34.861582 L41.179224,34.861582 C41.1862077,34.7987295 41.1896995,34.7480984 41.1896995,34.7096885 C41.1896995,34.4303443 41.1312117,34.1824262 41.0142363,33.9659344 C40.8972609,33.7494426 40.7348921,33.5809631 40.5271298,33.4604959 C40.3193675,33.3400287 40.0827978,33.2797951 39.8174208,33.2797951 C39.5520437,33.2797951 39.3137281,33.3400287 39.102474,33.4604959 C38.8912199,33.5809631 38.7253593,33.7494426 38.6048921,33.9659344 C38.4844249,34.1824262 38.4241913,34.4251066 38.4241913,34.6939754 C38.4241913,34.9663361 38.4861708,35.2107623 38.6101298,35.4272541 C38.7340888,35.6437459 38.9095519,35.8122254 39.1365191,35.9326926 C39.3634863,36.0531598 39.6236257,36.1133934 39.9169372,36.1133934 Z M40.7078306,34.5001803 L38.9270109,34.5001803 C38.9549454,34.2627377 39.050097,34.0706885 39.2124658,33.9240328 C39.3748347,33.777377 39.5764863,33.7040492 39.8174208,33.7040492 C40.0583552,33.7040492 40.2600068,33.77825 40.4223757,33.9266516 C40.5847445,34.0750533 40.6798962,34.2662295 40.7078306,34.5001803 L40.7078306,34.5001803 Z M43.096224,36.1133934 C43.3476339,36.1133934 43.5719822,36.0618893 43.7692691,35.9588811 C43.966556,35.855873 44.1193224,35.7083443 44.2275683,35.5162951 L44.2275683,35.5162951 L43.8452158,35.2753607 C43.7579208,35.4080492 43.6496749,35.5075656 43.5204781,35.5739098 C43.3912814,35.6402541 43.2481175,35.6734262 43.0909863,35.6734262 C42.9094126,35.6734262 42.7461708,35.6332705 42.6012609,35.552959 C42.4563511,35.4726475 42.3428675,35.358291 42.2608101,35.2098893 C42.1787527,35.0614877 42.137724,34.8895164 42.137724,34.6939754 C42.137724,34.5019262 42.1787527,34.3317008 42.2608101,34.1832992 C42.3428675,34.0348975 42.4563511,33.920541 42.6012609,33.8402295 C42.7461708,33.759918 42.9094126,33.7197623 43.0909863,33.7197623 C43.2481175,33.7197623 43.3912814,33.7529344 43.5204781,33.8192787 C43.6496749,33.885623 43.7579208,33.9851393 43.8452158,34.1178279 L43.8452158,34.1178279 L44.2275683,33.8716557 C44.1193224,33.6796066 43.966556,33.5329508 43.7692691,33.4316885 C43.5719822,33.3304262 43.3476339,33.2797951 43.096224,33.2797951 C42.813388,33.2797951 42.5611052,33.3400287 42.3393757,33.4604959 C42.1176462,33.5809631 41.943929,33.7485697 41.818224,33.9633156 C41.6925191,34.1780615 41.6296667,34.4216148 41.6296667,34.6939754 C41.6296667,34.9663361 41.6925191,35.2098893 41.818224,35.4246352 C41.943929,35.6393811 42.1176462,35.8078607 42.3393757,35.9300738 C42.5611052,36.0522869 42.813388,36.1133934 43.096224,36.1133934 Z M45.3798634,36.0819672 L45.3798634,34.6520738 C45.3798634,34.3552705 45.458429,34.1274303 45.6155601,33.9685533 C45.7726913,33.8096762 45.9874372,33.7302377 46.2597978,33.7302377 C46.5007322,33.7302377 46.6857978,33.7983279 46.8149945,33.9345082 C46.9441913,34.0706885 47.0087896,34.2732131 47.0087896,34.542082 L47.0087896,34.542082 L47.0087896,36.0819672 L47.5116093,36.0819672 L47.5116093,34.4844672 C47.5116093,34.0898934 47.4077281,33.7904713 47.1999658,33.5862008 C46.9922036,33.3819303 46.7119863,33.2797951 46.3593142,33.2797951 C46.149806,33.2797951 45.9603757,33.316459 45.7910232,33.3897869 C45.6216708,33.4631148 45.4846175,33.566123 45.3798634,33.6988115 L45.3798634,33.6988115 L45.3798634,32.1955902 L44.8770437,32.1955902 L44.8770437,36.0819672 L45.3798634,36.0819672 Z M49.3971831,36.1133934 C49.5124126,36.1133934 49.6241503,36.0968074 49.7323962,36.0636352 C49.8406421,36.0304631 49.931429,35.9824508 50.0047568,35.9195984 L50.0047568,35.9195984 L49.8476257,35.5581967 C49.7393798,35.6454918 49.6084372,35.6891393 49.4547978,35.6891393 C49.3151257,35.6891393 49.2077527,35.6489836 49.132679,35.5686721 C49.0576052,35.4883607 49.0200683,35.3731311 49.0200683,35.2229836 L49.0200683,35.2229836 L49.0200683,33.7197623 L49.8161995,33.7197623 L49.8161995,33.3059836 L49.0200683,33.3059836 L49.0200683,32.6984098 L48.5172486,32.6984098 L48.5172486,33.3059836 L48.0458552,33.3059836 L48.0458552,33.7197623 L48.5172486,33.7197623 L48.5172486,35.2439344 C48.5172486,35.5232787 48.5940683,35.7380246 48.7477077,35.8881721 C48.901347,36.0383197 49.1178388,36.1133934 49.3971831,36.1133934 Z M51.848429,36.1133934 C52.078888,36.1133934 52.2875232,36.0749836 52.4743347,35.9981639 C52.6611462,35.9213443 52.8174044,35.8096066 52.9431093,35.6629508 L52.9431093,35.6629508 L52.6655109,35.3382131 C52.4629863,35.5616885 52.1958634,35.6734262 51.8641421,35.6734262 C51.5917814,35.6734262 51.3639413,35.5992254 51.1806216,35.4508238 C50.9973019,35.3024221 50.889929,35.1060082 50.8585027,34.861582 L50.8585027,34.861582 L53.1107158,34.861582 C53.1176995,34.7987295 53.1211913,34.7480984 53.1211913,34.7096885 C53.1211913,34.4303443 53.0627036,34.1824262 52.9457281,33.9659344 C52.8287527,33.7494426 52.6663839,33.5809631 52.4586216,33.4604959 C52.2508593,33.3400287 52.0142896,33.2797951 51.7489126,33.2797951 C51.4835355,33.2797951 51.2452199,33.3400287 51.0339658,33.4604959 C50.8227117,33.5809631 50.6568511,33.7494426 50.5363839,33.9659344 C50.4159167,34.1824262 50.3556831,34.4251066 50.3556831,34.6939754 C50.3556831,34.9663361 50.4176626,35.2107623 50.5416216,35.4272541 C50.6655806,35.6437459 50.8410437,35.8122254 51.0680109,35.9326926 C51.2949781,36.0531598 51.5551175,36.1133934 51.848429,36.1133934 Z M52.6393224,34.5001803 L50.8585027,34.5001803 C50.8864372,34.2627377 50.9815888,34.0706885 51.1439577,33.9240328 C51.3063265,33.777377 51.5079781,33.7040492 51.7489126,33.7040492 C51.989847,33.7040492 52.1914986,33.77825 52.3538675,33.9266516 C52.5162363,34.0750533 52.611388,34.2662295 52.6393224,34.5001803 L52.6393224,34.5001803 Z M54.3206257,36.0819672 L54.3206257,34.6520738 C54.3206257,34.3552705 54.3991913,34.1274303 54.5563224,33.9685533 C54.7134536,33.8096762 54.9281995,33.7302377 55.2005601,33.7302377 C55.4414945,33.7302377 55.6265601,33.7983279 55.7557568,33.9345082 C55.8849536,34.0706885 55.9495519,34.2732131 55.9495519,34.542082 L55.9495519,34.542082 L55.9495519,36.0819672 L56.4523716,36.0819672 L56.4523716,34.4844672 C56.4523716,34.0898934 56.3484904,33.7904713 56.1407281,33.5862008 C55.9329658,33.3819303 55.6527486,33.2797951 55.3000765,33.2797951 C55.0800929,33.2797951 54.883679,33.3182049 54.7108347,33.3950246 C54.5379904,33.4718443 54.4009372,33.5818361 54.2996749,33.725 L54.2996749,33.725 L54.2996749,33.3059836 L53.817806,33.3059836 L53.817806,36.0819672 L54.3206257,36.0819672 Z M58.1808142,36.1133934 C58.5509454,36.1133934 58.8433839,36.0391926 59.0581298,35.890791 C59.2728757,35.7423893 59.3802486,35.5424836 59.3802486,35.2910738 C59.3802486,35.1025164 59.3313634,34.9558607 59.2335929,34.8511066 C59.1358224,34.7463525 59.017974,34.6721516 58.8800478,34.6285041 C58.7421216,34.5848566 58.5614208,34.5438279 58.3379454,34.505418 C58.1703388,34.4739918 58.0402691,34.4460574 57.9477363,34.4216148 C57.8552036,34.3971721 57.7775109,34.3587623 57.7146585,34.3063852 C57.651806,34.2540082 57.6203798,34.1824262 57.6203798,34.0916393 C57.6203798,33.9764098 57.6762486,33.883877 57.7879863,33.814041 C57.899724,33.7442049 58.0620929,33.7092869 58.2750929,33.7092869 C58.5823716,33.7092869 58.8494945,33.7826148 59.0764617,33.9292705 L59.0764617,33.9292705 L59.2912077,33.5312049 C59.1724863,33.4543852 59.0205929,33.3932787 58.8355273,33.3478852 C58.6504617,33.3024918 58.4653962,33.2797951 58.2803306,33.2797951 C57.9276585,33.2797951 57.6465683,33.3557418 57.4370601,33.5076352 C57.2275519,33.6595287 57.1227978,33.8611803 57.1227978,34.1125902 C57.1227978,34.3081311 57.173429,34.4600246 57.2746913,34.5682705 C57.3759536,34.6765164 57.4972937,34.7533361 57.6387117,34.7987295 C57.7801298,34.844123 57.9625765,34.8842787 58.1860519,34.9191967 C58.3501667,34.9471311 58.4767445,34.9724467 58.5657855,34.9951434 C58.6548265,35.0178402 58.7290273,35.0536311 58.788388,35.1025164 C58.8477486,35.1514016 58.877429,35.2177459 58.877429,35.3015492 C58.877429,35.552959 58.6574454,35.6786639 58.2174781,35.6786639 C58.0393962,35.6786639 57.8630601,35.6524754 57.6884699,35.6000984 C57.5138798,35.5477213 57.3654781,35.4778852 57.243265,35.3905902 L57.243265,35.3905902 L57.0337568,35.7886557 C57.1524781,35.8829344 57.3165929,35.960627 57.5261011,36.0217336 C57.7356093,36.0828402 57.953847,36.1133934 58.1808142,36.1133934 Z M60.9620355,36.1133934 C61.077265,36.1133934 61.1890027,36.0968074 61.2972486,36.0636352 C61.4054945,36.0304631 61.4962814,35.9824508 61.5696093,35.9195984 L61.5696093,35.9195984 L61.4124781,35.5581967 C61.3042322,35.6454918 61.1732896,35.6891393 61.0196503,35.6891393 C60.8799781,35.6891393 60.7726052,35.6489836 60.6975314,35.5686721 C60.6224577,35.4883607 60.5849208,35.3731311 60.5849208,35.2229836 L60.5849208,35.2229836 L60.5849208,33.7197623 L61.3810519,33.7197623 L61.3810519,33.3059836 L60.5849208,33.3059836 L60.5849208,32.6984098 L60.0821011,32.6984098 L60.0821011,33.3059836 L59.6107077,33.3059836 L59.6107077,33.7197623 L60.0821011,33.7197623 L60.0821011,35.2439344 C60.0821011,35.5232787 60.1589208,35.7380246 60.3125601,35.8881721 C60.4661995,36.0383197 60.6826913,36.1133934 60.9620355,36.1133934 Z M63.4132814,36.1133934 C63.6437404,36.1133934 63.8523757,36.0749836 64.0391872,35.9981639 C64.2259986,35.9213443 64.3822568,35.8096066 64.5079617,35.6629508 L64.5079617,35.6629508 L64.2303634,35.3382131 C64.0278388,35.5616885 63.7607158,35.6734262 63.4289945,35.6734262 C63.1566339,35.6734262 62.9287937,35.5992254 62.745474,35.4508238 C62.5621544,35.3024221 62.4547814,35.1060082 62.4233552,34.861582 L62.4233552,34.861582 L64.6755683,34.861582 C64.6825519,34.7987295 64.6860437,34.7480984 64.6860437,34.7096885 C64.6860437,34.4303443 64.627556,34.1824262 64.5105806,33.9659344 C64.3936052,33.7494426 64.2312363,33.5809631 64.023474,33.4604959 C63.8157117,33.3400287 63.5791421,33.2797951 63.313765,33.2797951 C63.048388,33.2797951 62.8100724,33.3400287 62.5988183,33.4604959 C62.3875642,33.5809631 62.2217036,33.7494426 62.1012363,33.9659344 C61.9807691,34.1824262 61.9205355,34.4251066 61.9205355,34.6939754 C61.9205355,34.9663361 61.982515,35.2107623 62.106474,35.4272541 C62.2304331,35.6437459 62.4058962,35.8122254 62.6328634,35.9326926 C62.8598306,36.0531598 63.1199699,36.1133934 63.4132814,36.1133934 Z M64.2041749,34.5001803 L62.4233552,34.5001803 C62.4512896,34.2627377 62.5464413,34.0706885 62.7088101,33.9240328 C62.871179,33.777377 63.0728306,33.7040492 63.313765,33.7040492 C63.5546995,33.7040492 63.7563511,33.77825 63.9187199,33.9266516 C64.0810888,34.0750533 64.1762404,34.2662295 64.2041749,34.5001803 L64.2041749,34.5001803 Z M65.6340683,32.7717377 C65.7318388,32.7717377 65.8130232,32.7394385 65.8776216,32.6748402 C65.9422199,32.6102418 65.9745191,32.5308033 65.9745191,32.4365246 C65.9745191,32.3457377 65.9422199,32.269791 65.8776216,32.2086844 C65.8130232,32.1475779 65.7318388,32.1170246 65.6340683,32.1170246 C65.5362978,32.1170246 65.4551134,32.1493238 65.390515,32.2139221 C65.3259167,32.2785205 65.2936175,32.3562131 65.2936175,32.447 C65.2936175,32.5377869 65.3259167,32.6146066 65.390515,32.677459 C65.4551134,32.7403115 65.5362978,32.7717377 65.6340683,32.7717377 Z M65.8854781,36.0819672 L65.8854781,33.3059836 L65.3826585,33.3059836 L65.3826585,36.0819672 L65.8854781,36.0819672 Z M67.3467978,36.0819672 L67.3467978,34.6520738 C67.3467978,34.3552705 67.4253634,34.1274303 67.5824945,33.9685533 C67.7396257,33.8096762 67.9543716,33.7302377 68.2267322,33.7302377 C68.4676667,33.7302377 68.6527322,33.7983279 68.781929,33.9345082 C68.9111257,34.0706885 68.975724,34.2732131 68.975724,34.542082 L68.975724,34.542082 L68.975724,36.0819672 L69.4785437,36.0819672 L69.4785437,34.4844672 C69.4785437,34.0898934 69.3746626,33.7904713 69.1669003,33.5862008 C68.959138,33.3819303 68.6789208,33.2797951 68.3262486,33.2797951 C68.106265,33.2797951 67.9098511,33.3182049 67.7370068,33.3950246 C67.5641626,33.4718443 67.4271093,33.5818361 67.325847,33.725 L67.325847,33.725 L67.325847,33.3059836 L66.8439781,33.3059836 L66.8439781,36.0819672 L67.3467978,36.0819672 Z" id="logotype"></path>
            </g>
        </g>
    </g>
</svg>