<svg viewBox="0 0 71 37">
  <defs/>
  <g id="Page-1" fill="none" fill-rule="evenodd" stroke="none" stroke-width="1">
    <g id="home_website" fill="#000" fill-rule="nonzero" transform="translate(-59 -56)">
      <g id="logo2" transform="translate(59 56)">
        <path id="logo" d="M13.558.504V13.01l-.002.202c-.033 2.268-.62 3.978-1.761 5.129-1.176 1.184-2.902 1.776-5.18 1.776-1.303 0-2.501-.243-3.594-.73-1.093-.486-1.988-1.18-2.686-2.08l2.48-2.974.098.13c1.023 1.327 2.184 1.99 3.482 1.99 1.818 0 2.728-1.064 2.728-3.195V4.085H2.346V.505h11.212zm13.8-.33c1.69 0 3.223.284 4.6.854 1.378.569 2.535 1.395 3.471 2.479L32.565 6.15l-.123-.126c-1.353-1.366-2.974-2.05-4.863-2.05-1.23 0-2.323.257-3.278.772a5.533 5.533 0 00-2.232 2.176c-.532.936-.798 2.01-.798 3.223 0 1.193.266 2.258.798 3.195a5.65 5.65 0 002.218 2.19c.946.523 2.025.785 3.237.785 1.285 0 2.442-.275 3.47-.826V9.843h4.077v7.823l-.186.137c-1.004.723-2.154 1.283-3.45 1.68a14.117 14.117 0 01-4.16.634c-2.001 0-3.8-.427-5.398-1.28-1.598-.854-2.852-2.039-3.76-3.554-.91-1.515-1.364-3.227-1.364-5.137 0-1.91.454-3.623 1.363-5.138.91-1.515 2.172-2.7 3.788-3.553C23.52.6 25.338.174 27.358.174zm16.308 19.613v-7.024h8.925V9.182h-8.925V4.085h10.11V.505H39.202v19.282h4.463zM61.268.504v15.647h9.669v3.636H56.805V.504h4.463zM35.065 9.311v3.492h-8.148V9.311h8.148z"/>
        <path id="logotype" d="M1.41 29.916c.376 0 .662-.102.856-.306.193-.204.29-.51.29-.914v-2.488H.713v.456h1.325v2.058c0 .244-.053.43-.16.555-.106.126-.263.189-.469.189-.307 0-.562-.145-.764-.435l-.304.356c.115.168.267.298.456.39.188.093.392.14.612.14zm2.938-3.31a.262.262 0 00.188-.076.255.255 0 00.079-.191.263.263 0 00-.079-.194.257.257 0 00-.188-.078.257.257 0 00-.189.078.263.263 0 00-.078.194.262.262 0 00.267.267zm.974 0a.262.262 0 00.188-.076.255.255 0 00.079-.191.263.263 0 00-.079-.194.257.257 0 00-.188-.078.257.257 0 00-.189.078.263.263 0 00-.078.194.262.262 0 00.267.267zm-.602 3.3c.195 0 .376-.04.542-.118.166-.079.3-.19.4-.333v.42h.477v-2.777h-.503v1.435c0 .294-.077.52-.23.681-.154.161-.363.241-.629.241-.24 0-.426-.069-.555-.207-.13-.138-.194-.34-.194-.61v-1.54h-.503v1.598c0 .398.107.7.32.903.213.205.504.307.875.307zm3.525 0c.206 0 .394-.04.565-.12.171-.081.313-.198.424-.352v.44h.482v-3.886h-.502v1.53a1.068 1.068 0 00-.42-.333 1.33 1.33 0 00-.55-.113c-.268 0-.51.06-.722.178a1.28 1.28 0 00-.5.498c-.12.213-.181.459-.181.738 0 .28.06.527.18.741.121.215.288.382.5.5.214.12.455.179.724.179zm.041-.44a.937.937 0 01-.479-.123.887.887 0 01-.335-.346 1.038 1.038 0 01-.123-.51c0-.193.04-.363.123-.511a.868.868 0 01.335-.343.953.953 0 01.48-.12.96.96 0 01.476.12c.143.08.255.194.335.343.08.148.12.318.12.51s-.04.363-.12.511a.864.864 0 01-.335.346.941.941 0 01-.477.123zm2.635-2.902a.33.33 0 00.34-.335.3.3 0 00-.096-.228.34.34 0 00-.244-.092.33.33 0 00-.34.33c0 .091.032.168.096.23a.335.335 0 00.244.095zm.251 3.31v-2.776h-.502v2.776h.502zm1.755.032c.37 0 .663-.074.877-.223a.694.694 0 00.322-.6c0-.188-.048-.335-.146-.44a.81.81 0 00-.354-.222 4.235 4.235 0 00-.542-.123 5.826 5.826 0 01-.39-.084.596.596 0 01-.233-.115.265.265 0 01-.094-.215c0-.115.055-.208.167-.278.112-.07.274-.104.487-.104.308 0 .575.073.802.22l.214-.398a1.493 1.493 0 00-.455-.184 2.323 2.323 0 00-.555-.068c-.353 0-.634.076-.844.228a.712.712 0 00-.314.605c0 .195.05.347.152.456a.844.844 0 00.364.23c.141.045.324.086.547.12.164.028.291.054.38.076a.564.564 0 01.223.108.245.245 0 01.089.199c0 .251-.22.377-.66.377a1.82 1.82 0 01-.53-.079 1.504 1.504 0 01-.445-.21l-.209.399c.119.094.283.172.492.233.21.061.428.092.655.092zm3.038 0c.251 0 .476-.052.673-.155.197-.103.35-.25.458-.442l-.382-.241a.854.854 0 01-.325.298.926.926 0 01-.43.1.993.993 0 01-.49-.12.858.858 0 01-.34-.344 1.049 1.049 0 01-.123-.516c0-.192.041-.362.123-.51a.858.858 0 01.34-.343.993.993 0 01.49-.12.854.854 0 01.754.398l.383-.247a1.082 1.082 0 00-.458-.44 1.453 1.453 0 00-.673-.152c-.283 0-.535.06-.757.18a1.33 1.33 0 00-.521.504 1.42 1.42 0 00-.189.73c0 .273.063.516.189.731.126.215.3.383.521.505.222.123.474.184.757.184zm2.284-.032v-1.43c0-.296.078-.524.235-.683.157-.159.372-.238.644-.238.241 0 .426.068.556.204.129.136.193.339.193.607v1.54h.503v-1.597c0-.395-.104-.694-.311-.898-.208-.205-.488-.307-.841-.307-.21 0-.399.037-.568.11-.17.073-.307.176-.411.31v-1.504h-.503v3.886h.503zm4.3.032c.23 0 .439-.039.626-.115.186-.077.343-.189.468-.336l-.277-.324c-.203.223-.47.335-.802.335-.272 0-.5-.074-.683-.223a.872.872 0 01-.322-.59h2.252a1.54 1.54 0 00-.165-.896 1.269 1.269 0 00-.487-.504 1.389 1.389 0 00-.71-.18c-.265 0-.504.06-.715.18a1.29 1.29 0 00-.497.505 1.48 1.48 0 00-.181.728c0 .273.062.517.186.734.124.216.3.385.526.505.227.12.487.18.78.18zm.79-1.613h-1.78a.887.887 0 01.285-.577.869.869 0 01.605-.22c.241 0 .443.075.605.223a.89.89 0 01.286.574zm4.316 1.623c.262 0 .514-.04.755-.12.24-.08.452-.196.633-.346v-1.43h-.502v1.194a1.558 1.558 0 01-.86.236 1.52 1.52 0 01-.746-.183 1.343 1.343 0 01-.52-.506 1.4 1.4 0 01-.19-.72c0-.269.063-.51.19-.725.125-.215.299-.383.52-.503.222-.12.473-.18.752-.18.415 0 .77.14 1.063.423l.325-.324a1.63 1.63 0 00-.61-.422 2.126 2.126 0 00-.8-.144c-.373 0-.709.08-1.007.241a1.77 1.77 0 00-.702.67c-.17.287-.254.608-.254.964s.084.677.254.961c.17.285.402.508.7.67.296.163.63.244 1 .244zm3.552-.01c.23 0 .439-.039.626-.115.186-.077.343-.189.468-.336l-.277-.324c-.203.223-.47.335-.802.335-.272 0-.5-.074-.683-.223a.872.872 0 01-.322-.59h2.252a1.54 1.54 0 00-.165-.896 1.269 1.269 0 00-.487-.504 1.389 1.389 0 00-.71-.18c-.265 0-.504.06-.715.18a1.29 1.29 0 00-.497.505 1.48 1.48 0 00-.181.728c0 .273.062.517.186.734.124.216.3.385.526.505.227.12.487.18.78.18zm.79-1.613h-1.78a.887.887 0 01.285-.577.869.869 0 01.605-.22c.241 0 .443.075.605.223.162.148.258.34.286.574zm1.682 1.581v-1.43c0-.296.075-.524.225-.683.15-.159.353-.238.608-.238.23 0 .407.068.531.204.124.136.186.339.186.607v1.54h.503v-1.43c0-.296.075-.524.225-.683.15-.159.353-.238.608-.238.23 0 .407.068.531.204.124.136.186.339.186.607v1.54h.503v-1.597c0-.398-.102-.699-.306-.901-.204-.203-.481-.304-.83-.304a1.44 1.44 0 00-.632.136 1.075 1.075 0 00-.437.377.91.91 0 00-.387-.382 1.23 1.23 0 00-.577-.13c-.21 0-.396.037-.56.112a.974.974 0 00-.398.327v-.414h-.482v2.776h.503zm6.27.032c.23 0 .438-.039.625-.115.187-.077.343-.189.469-.336l-.278-.324c-.202.223-.47.335-.8.335-.273 0-.501-.074-.684-.223a.872.872 0 01-.323-.59h2.253a1.54 1.54 0 00-.165-.896 1.269 1.269 0 00-.487-.504 1.389 1.389 0 00-.71-.18c-.266 0-.504.06-.715.18a1.3 1.3 0 00-.498.505c-.12.217-.18.46-.18.728 0 .273.062.517.186.734.124.216.299.385.526.505.227.12.487.18.78.18zm.79-1.613h-1.78a.887.887 0 01.285-.577.869.869 0 01.605-.22.868.868 0 01.89.797zm1.43-1.729a.33.33 0 00.34-.335.3.3 0 00-.096-.228.34.34 0 00-.244-.092.33.33 0 00-.34.33c0 .091.032.168.097.23a.335.335 0 00.243.095zm.252 3.31v-2.776h-.503v2.776h.503zm1.46 0v-1.43c0-.296.08-.524.237-.683.157-.159.371-.238.644-.238.24 0 .426.068.555.204.13.136.194.339.194.607v1.54h.503v-1.597c0-.395-.104-.694-.312-.898-.208-.205-.488-.307-.84-.307-.22 0-.417.039-.59.115a.977.977 0 00-.411.33v-.419h-.482v2.776h.503zm3.861.032c.37 0 .663-.074.877-.223a.694.694 0 00.323-.6c0-.188-.05-.335-.147-.44a.81.81 0 00-.354-.222 4.235 4.235 0 00-.542-.123 5.826 5.826 0 01-.39-.084.596.596 0 01-.233-.115.265.265 0 01-.094-.215c0-.115.056-.208.167-.278.112-.07.274-.104.487-.104.308 0 .575.073.802.22l.214-.398a1.493 1.493 0 00-.455-.184 2.323 2.323 0 00-.555-.068c-.353 0-.634.076-.844.228a.712.712 0 00-.314.605c0 .195.05.347.152.456a.844.844 0 00.364.23c.141.045.324.086.547.12.164.028.291.054.38.076a.564.564 0 01.223.108.245.245 0 01.089.199c0 .251-.22.377-.66.377a1.82 1.82 0 01-.53-.079 1.504 1.504 0 01-.444-.21l-.21.399c.119.094.283.172.492.233.21.061.428.092.655.092zm3.038 0c.251 0 .476-.052.673-.155.197-.103.35-.25.458-.442l-.382-.241a.854.854 0 01-.325.298.926.926 0 01-.43.1.993.993 0 01-.489-.12.858.858 0 01-.34-.344 1.049 1.049 0 01-.124-.516c0-.192.041-.362.124-.51a.858.858 0 01.34-.343.993.993 0 01.49-.12.854.854 0 01.754.398l.382-.247a1.082 1.082 0 00-.458-.44 1.453 1.453 0 00-.673-.152c-.283 0-.535.06-.757.18a1.33 1.33 0 00-.521.504 1.42 1.42 0 00-.189.73c0 .273.063.516.189.731.126.215.3.383.521.505.222.123.474.184.757.184zm2.284-.032v-1.43c0-.296.078-.524.235-.683.157-.159.372-.238.645-.238.24 0 .426.068.555.204.129.136.194.339.194.607v1.54h.502v-1.597c0-.395-.104-.694-.311-.898-.208-.205-.488-.307-.841-.307-.21 0-.399.037-.568.11-.17.073-.307.176-.411.31v-1.504h-.503v3.886h.503zm3.875.032c.213 0 .398-.034.553-.102a.795.795 0 00.359-.296v.366h.476v-1.676c0-.373-.102-.654-.306-.843-.204-.189-.498-.283-.882-.283-.224 0-.435.03-.634.092a1.52 1.52 0 00-.514.264l.21.377c.108-.09.24-.163.398-.217a1.47 1.47 0 01.482-.081c.244 0 .43.057.555.173.126.115.189.28.189.497v.1h-.796c-.388 0-.67.074-.849.222a.729.729 0 00-.267.59c0 .244.093.441.28.592.187.15.436.225.746.225zm.084-.388c-.192 0-.342-.04-.45-.12a.389.389 0 01-.163-.33c0-.287.213-.43.64-.43h.775v.388a.734.734 0 01-.304.364.934.934 0 01-.498.128zm2.813.356v-2.362h.796v-.414h-.807v-.24c0-.325.15-.488.45-.488.144 0 .273.044.388.131l.152-.382a.765.765 0 00-.251-.12 1.14 1.14 0 00-.314-.042c-.29 0-.515.08-.676.24-.16.161-.24.38-.24.655v.246h-.472v.414h.471v2.362h.503zm2.226.032c.115 0 .227-.017.335-.05a.75.75 0 00.273-.144l-.158-.361a.606.606 0 01-.392.13c-.14 0-.247-.04-.323-.12-.075-.08-.112-.196-.112-.346v-1.503h.796v-.414h-.796v-.607h-.503v.607h-.471v.414h.471v1.524c0 .28.077.494.23.645.154.15.37.225.65.225zm2.875-3.342a.33.33 0 00.34-.335.3.3 0 00-.096-.228.34.34 0 00-.244-.092.33.33 0 00-.34.33c0 .091.032.168.097.23a.335.335 0 00.243.095zm.252 3.31v-2.776h-.503v2.776h.503zm1.461 0v-1.43c0-.296.075-.524.225-.683.15-.159.353-.238.608-.238.23 0 .408.068.532.204.124.136.186.339.186.607v1.54h.502v-1.43c0-.296.075-.524.226-.683.15-.159.352-.238.607-.238.23 0 .408.068.532.204.124.136.186.339.186.607v1.54h.503v-1.597c0-.398-.103-.699-.307-.901-.204-.203-.48-.304-.83-.304-.234 0-.444.046-.631.136a1.072 1.072 0 00-.438.377.91.91 0 00-.387-.382 1.23 1.23 0 00-.576-.13c-.21 0-.397.037-.56.112a.974.974 0 00-.399.327v-.414h-.482v2.776h.503zM1.462 36.082V34.6H3.3v-.45H1.462v-1.28h2.063v-.455H.938v3.666h.524zm3.525-3.268a.262.262 0 00.188-.076.255.255 0 00.079-.191.263.263 0 00-.079-.194.257.257 0 00-.188-.079.257.257 0 00-.189.079.263.263 0 00-.078.194.262.262 0 00.267.267zm.974 0a.262.262 0 00.188-.076.255.255 0 00.079-.191.263.263 0 00-.079-.194.257.257 0 00-.188-.079.257.257 0 00-.189.079.263.263 0 00-.078.194.262.262 0 00.267.267zm-.602 3.3c.195 0 .376-.04.542-.118.166-.079.3-.19.4-.333v.419h.477v-2.776h-.503v1.435c0 .293-.077.52-.23.681-.154.16-.363.241-.629.241-.24 0-.426-.069-.555-.207-.13-.138-.194-.341-.194-.61v-1.54h-.503v1.597c0 .399.107.7.32.904.213.204.504.306.875.306zm2.88-.032v-1.383c0-.3.078-.531.233-.694.156-.162.37-.243.642-.243.049 0 .087.001.115.005v-.487c-.244 0-.452.042-.623.126a.858.858 0 00-.388.366v-.466h-.482v2.776h.503zm2.441.031c.37 0 .663-.074.877-.222a.694.694 0 00.323-.6c0-.188-.05-.335-.147-.44a.81.81 0 00-.354-.222 4.235 4.235 0 00-.542-.124 5.826 5.826 0 01-.39-.083.596.596 0 01-.233-.116.265.265 0 01-.094-.214c0-.116.056-.208.167-.278.112-.07.274-.105.487-.105.308 0 .575.074.802.22l.214-.398a1.493 1.493 0 00-.455-.183 2.323 2.323 0 00-.555-.068c-.353 0-.634.076-.844.228a.712.712 0 00-.314.605c0 .195.05.347.152.455a.844.844 0 00.364.23c.141.046.324.086.547.121a5 5 0 01.38.076.564.564 0 01.223.108.244.244 0 01.089.199c0 .251-.22.377-.66.377-.178 0-.355-.027-.53-.079a1.504 1.504 0 01-.444-.21l-.21.399c.119.094.283.172.492.233.21.06.428.091.655.091zm2.781 0c.116 0 .227-.016.336-.05a.75.75 0 00.272-.143l-.157-.362a.606.606 0 01-.393.131c-.14 0-.247-.04-.322-.12-.075-.08-.113-.196-.113-.346V33.72h.796v-.414h-.796v-.608h-.503v.608h-.471v.414h.471v1.524c0 .28.077.494.23.644.154.15.37.225.65.225zm2.452 0c.23 0 .439-.038.625-.115.187-.077.344-.188.47-.335l-.278-.325c-.203.224-.47.335-.802.335-.272 0-.5-.074-.683-.222a.872.872 0 01-.322-.59h2.252a1.54 1.54 0 00-.165-.896 1.269 1.269 0 00-.487-.505 1.389 1.389 0 00-.71-.18c-.265 0-.504.06-.715.18a1.31 1.31 0 00-.498.506c-.12.216-.18.46-.18.728 0 .272.062.517.186.733.124.217.3.385.526.506.227.12.487.18.78.18zm.79-1.613h-1.78a.887.887 0 01.285-.576.869.869 0 01.605-.22.86.86 0 01.605.223c.162.148.257.34.285.573zm1.682 1.582v-1.43c0-.297.078-.525.235-.683.158-.16.372-.239.645-.239.24 0 .426.068.555.205.13.136.194.338.194.607v1.54h.502v-1.598c0-.394-.103-.694-.311-.898-.208-.204-.488-.306-.84-.306-.22 0-.417.038-.59.115a.977.977 0 00-.411.33v-.419h-.482v2.776h.503zm4.017.031c.115 0 .227-.016.335-.05a.75.75 0 00.273-.143l-.158-.362a.606.606 0 01-.392.131c-.14 0-.247-.04-.322-.12-.076-.08-.113-.196-.113-.346V33.72h.796v-.414h-.796v-.608h-.503v.608h-.471v.414h.471v1.524c0 .28.077.494.23.644.154.15.37.225.65.225zm2.383 0c.196 0 .376-.039.542-.117.166-.079.3-.19.401-.333v.419h.477v-2.776h-.503v1.435c0 .293-.077.52-.23.681-.154.16-.364.241-.63.241-.24 0-.425-.069-.554-.207-.13-.138-.194-.341-.194-.61v-1.54h-.503v1.597c0 .399.107.7.32.904.213.204.504.306.874.306zm2.88-.031v-1.43c0-.297.076-.525.226-.683.15-.16.353-.239.608-.239.23 0 .407.068.531.205.124.136.186.338.186.607v1.54h.503v-1.43c0-.297.075-.525.225-.683.15-.16.353-.239.608-.239.23 0 .408.068.532.205.124.136.185.338.185.607v1.54h.503v-1.598c0-.398-.102-.698-.306-.9-.204-.203-.481-.304-.83-.304-.234 0-.445.045-.631.136-.187.09-.333.216-.438.377a.91.91 0 00-.387-.382 1.23 1.23 0 00-.577-.131c-.209 0-.396.037-.56.112a.974.974 0 00-.398.328v-.414h-.482v2.776h.503zm9.026 0v-.456h-1.986v-3.21h-.523v3.666h2.509zm.78-3.31a.33.33 0 00.34-.335.3.3 0 00-.097-.228.34.34 0 00-.243-.092.33.33 0 00-.34.33c0 .09.032.168.096.23a.335.335 0 00.244.095zm.251 3.31v-2.776h-.502v2.776h.502zm2.195.031c.23 0 .439-.038.626-.115.187-.077.343-.188.469-.335l-.278-.325c-.203.224-.47.335-.801.335-.273 0-.5-.074-.684-.222a.872.872 0 01-.322-.59h2.252a1.54 1.54 0 00-.165-.896 1.269 1.269 0 00-.487-.505 1.389 1.389 0 00-.71-.18c-.265 0-.503.06-.715.18-.21.121-.377.29-.497.506-.12.216-.18.46-.18.728 0 .272.061.517.185.733.124.217.3.385.527.506.226.12.487.18.78.18zm.79-1.613h-1.78a.887.887 0 01.285-.576.869.869 0 01.605-.22.86.86 0 01.605.223.89.89 0 01.286.573zm2.39 1.613c.25 0 .475-.051.672-.154.198-.103.35-.25.459-.443l-.383-.24a.854.854 0 01-.325.298.926.926 0 01-.429.1.993.993 0 01-.49-.121.858.858 0 01-.34-.343 1.049 1.049 0 01-.123-.516c0-.192.04-.362.123-.51a.858.858 0 01.34-.344.993.993 0 01.49-.12c.157 0 .3.033.43.1a.845.845 0 01.324.298l.383-.246a1.082 1.082 0 00-.459-.44 1.453 1.453 0 00-.673-.152c-.283 0-.535.06-.757.18a1.331 1.331 0 00-.52.503 1.42 1.42 0 00-.19.731c0 .272.064.516.19.73.125.215.299.384.52.506.222.122.474.183.757.183zm2.283-.031v-1.43c0-.297.078-.525.236-.683.157-.16.371-.239.644-.239.24 0 .426.068.555.205.13.136.194.338.194.607v1.54h.503v-1.598c0-.394-.104-.694-.312-.898-.208-.204-.488-.306-.84-.306-.21 0-.4.036-.569.11-.17.073-.306.176-.411.309v-1.503h-.503v3.886h.503zm4.017.031c.115 0 .227-.016.335-.05a.75.75 0 00.273-.143l-.157-.362a.606.606 0 01-.393.131c-.14 0-.247-.04-.322-.12-.075-.08-.113-.196-.113-.346V33.72h.796v-.414h-.796v-.608h-.503v.608h-.471v.414h.471v1.524c0 .28.077.494.23.644.154.15.37.225.65.225zm2.451 0c.23 0 .44-.038.626-.115.187-.077.343-.188.47-.335l-.278-.325c-.203.224-.47.335-.802.335-.272 0-.5-.074-.683-.222a.872.872 0 01-.322-.59h2.252a1.54 1.54 0 00-.165-.896 1.269 1.269 0 00-.487-.505 1.389 1.389 0 00-.71-.18c-.265 0-.504.06-.715.18a1.31 1.31 0 00-.498.506c-.12.216-.18.46-.18.728 0 .272.062.517.186.733.124.217.299.385.526.506.227.12.487.18.78.18zm.791-1.613h-1.78a.887.887 0 01.285-.576.869.869 0 01.605-.22c.24 0 .442.074.605.223.162.148.257.34.285.573zm1.682 1.582v-1.43c0-.297.078-.525.235-.683.157-.16.372-.239.645-.239.24 0 .426.068.555.205.129.136.194.338.194.607v1.54h.502v-1.598c0-.394-.104-.694-.311-.898-.208-.204-.488-.306-.84-.306-.22 0-.417.038-.59.115a.977.977 0 00-.411.33v-.419h-.482v2.776h.503zm3.86.031c.37 0 .662-.074.877-.222a.694.694 0 00.322-.6c0-.188-.049-.335-.146-.44a.81.81 0 00-.354-.222 4.235 4.235 0 00-.542-.124 5.826 5.826 0 01-.39-.083.596.596 0 01-.233-.116.265.265 0 01-.095-.214c0-.116.056-.208.168-.278.112-.07.274-.105.487-.105.307 0 .574.074.801.22l.215-.398a1.493 1.493 0 00-.455-.183 2.323 2.323 0 00-.556-.068c-.352 0-.633.076-.843.228a.712.712 0 00-.314.605c0 .195.05.347.152.455a.844.844 0 00.364.23c.141.046.324.086.547.121.164.028.29.053.38.076a.564.564 0 01.222.108c.06.048.09.115.09.199 0 .251-.22.377-.66.377a1.85 1.85 0 01-.53-.079 1.504 1.504 0 01-.445-.21l-.21.399c.12.094.284.172.493.233.21.06.428.091.655.091zm2.781 0c.115 0 .227-.016.335-.05a.75.75 0 00.273-.143l-.158-.362a.606.606 0 01-.392.131c-.14 0-.247-.04-.322-.12-.076-.08-.113-.196-.113-.346V33.72h.796v-.414h-.796v-.608h-.503v.608h-.471v.414h.471v1.524c0 .28.077.494.23.644.154.15.37.225.65.225zm2.451 0c.23 0 .44-.038.626-.115.187-.077.343-.188.469-.335l-.278-.325c-.202.224-.47.335-.801.335-.272 0-.5-.074-.684-.222a.872.872 0 01-.322-.59h2.253a1.54 1.54 0 00-.165-.896 1.269 1.269 0 00-.488-.505 1.389 1.389 0 00-.71-.18c-.265 0-.503.06-.714.18a1.31 1.31 0 00-.498.506c-.12.216-.18.46-.18.728 0 .272.062.517.185.733.124.217.3.385.527.506.227.12.487.18.78.18zm.791-1.613h-1.78a.887.887 0 01.285-.576.869.869 0 01.605-.22c.24 0 .442.074.605.223.162.148.257.34.285.573zm1.43-1.728a.33.33 0 00.34-.335.3.3 0 00-.096-.228.34.34 0 00-.244-.092.33.33 0 00-.34.33c0 .09.032.168.097.23a.335.335 0 00.243.095zm.251 3.31v-2.776h-.502v2.776h.502zm1.462 0v-1.43c0-.297.078-.525.235-.683.158-.16.372-.239.645-.239.24 0 .426.068.555.205.13.136.194.338.194.607v1.54h.503v-1.598c0-.394-.104-.694-.312-.898-.208-.204-.488-.306-.84-.306-.22 0-.417.038-.59.115a.977.977 0 00-.411.33v-.419h-.482v2.776h.503z"/>
      </g>
    </g>
  </g>
</svg>
