<?xml version="1.0" encoding="UTF-8"?>
<svg width="72px" height="21px" viewBox="0 0 72 21" version="1.1" xmlns="http://www.w3.org/2000/svg" xmlns:xlink="http://www.w3.org/1999/xlink">
    <title>logo</title>
    <g id="Page-1" stroke="none" stroke-width="1" fill="none" fill-rule="evenodd">
        <g id="l_home_mobile" transform="translate(-67.000000, -20.000000)" fill="#000000" fill-rule="nonzero">
            <g id="header" transform="translate(20.000000, 13.000000)">
                <g id="logo2" transform="translate(47.000000, 7.000000)">
                    <path d="M13.5314629,0.472422151 L13.5314629,13.0138586 L13.5300197,13.2160347 C13.4973065,15.4908797 12.908469,17.2052556 11.7635071,18.3591625 C10.5848699,19.5470078 8.85374652,20.1409304 6.57013696,20.1409304 C5.2625863,20.1409304 4.06092885,19.8969157 2.96516458,19.4088862 C1.86940031,18.9208568 0.971610257,18.225645 0.271794417,17.3232509 L0.271794417,17.3232509 L2.75798226,14.3398255 L2.85682549,14.4706902 C3.88266573,15.8014949 5.04677138,16.4668973 6.34914248,16.4668973 C8.1723469,16.4668973 9.08394911,15.3987573 9.08394911,13.2624774 L9.08394911,13.2624774 L9.08394911,4.06358237 L2.288369,4.06358237 L2.288369,0.472422151 L13.5314629,0.472422151 Z M27.3712419,0.140930439 C29.0655329,0.140930439 30.6032861,0.426381636 31.9845016,0.99728403 C33.3657171,1.56818642 34.5259381,2.3969157 35.4651646,3.48347188 L35.4651646,3.48347188 L32.5922364,6.13540558 L32.4696237,6.00892161 C31.1127348,4.63836395 29.486939,3.95308513 27.5922364,3.95308513 C26.3583506,3.95308513 25.2625863,4.21091204 24.3049436,4.7265658 C23.3473009,5.24221956 22.6014445,5.96965972 22.0673745,6.90888624 C21.5333045,7.84811276 21.2662696,8.92546083 21.2662696,10.1409304 C21.2662696,11.3379839 21.5333045,12.4061238 22.0673745,13.3453503 C22.6014445,14.2845768 23.3426968,15.016621 24.2911314,15.5414829 C25.2395661,16.0663448 26.3215182,16.3287757 27.5369878,16.3287757 C28.8261222,16.3287757 29.9863432,16.0525326 31.0176508,15.5000465 L31.0176508,15.5000465 L31.0176508,9.83706304 L35.1060486,9.83706304 L35.1060486,17.6823669 L34.9190826,17.8202017 C33.9127548,18.5451247 32.7596072,19.1069146 31.4596397,19.5055713 C30.0784243,19.9291441 28.6880007,20.1409304 27.288369,20.1409304 C25.2810025,20.1409304 23.4762143,19.7127536 21.8740044,18.8564001 C20.2717944,18.0000465 19.0148883,16.8122012 18.1032861,15.2928641 C17.1916839,13.7735271 16.7358828,12.0562159 16.7358828,10.1409304 C16.7358828,8.22564497 17.1916839,6.50833375 18.1032861,4.98899674 C19.0148883,3.46965972 20.2810025,2.28181442 21.9016287,1.42546083 C23.5222548,0.569107234 25.3454592,0.140930439 27.3712419,0.140930439 Z M43.7248331,19.8094387 L43.7248331,12.7652398 L52.6751093,12.7652398 L52.6751093,9.17407961 L43.7248331,9.17407961 L43.7248331,4.06358237 L53.8629546,4.06358237 L53.8629546,0.472422151 L39.249695,0.472422151 L39.249695,19.8094387 L43.7248331,19.8094387 Z M61.3767668,0.472422151 L61.3767668,16.1630299 L71.0728994,16.1630299 L71.0728994,19.8094387 L56.9016287,19.8094387 L56.9016287,0.472422151 L61.3767668,0.472422151 Z M35.0992794,9.30441966 L35.0992794,12.8060927 L26.928709,12.8060927 L26.928709,9.30441966 L35.0992794,9.30441966 Z" id="logo"></path>
                </g>
            </g>
        </g>
    </g>
</svg>